<?xml version="1.0" encoding="utf-8"?>
<!-- Generator: Adobe Illustrator 22.0.1, SVG Export Plug-In . SVG Version: 6.00 Build 0)  -->
<svg version="1.1" id="Layer_1" xmlns="http://www.w3.org/2000/svg" xmlns:xlink="http://www.w3.org/1999/xlink" x="0px" y="0px"
	 viewBox="0 0 427 265.9" style="enable-background:new 0 0 427 265.9;" xml:space="preserve">
<style type="text/css">
	.st0{fill:#FFFFFF;}
	.st1{fill:#ACCEED;}
	.st2{fill:#FAAF70;}
	.st3{fill:#5BBE82;}
	.st4{fill:#A9B8DE;}
	.st5{fill:#0E1D2B;}
	.st6{fill:none;}
	.st7{fill:#5BBE81;}
	.st8{fill:#030303;}
	.st9{fill:none;stroke:#4770B2;stroke-width:4;stroke-linecap:round;}
</style>
<path id="Path_1742_1_" class="st0" d="M78.9,154.6l-16.8-12.2c-0.1-0.1-0.2-0.3-0.2-0.4l0.8-8.5c0-0.1,0.1-0.2,0.2-0.3l4.5-6.4
	c0.1,0,0.3-0.2,0.4-0.2l0,0c0.2,0,0.3,0.1,0.4,0.2L86,151.8v0.4c-0.1,0.2-0.2,0.3-0.3,0.3l-6.2,2h-0.2
	C79.3,154.6,79.2,154.5,78.9,154.6z"/>
<path class="st0" d="M332.9,235.7H123.8c-2.7,0-4.8-2-4.8-4.5l0,0V4.5c0-2.5,2.1-4.5,4.8-4.5l0,0h209.2c2.7,0,4.8,2,4.8,4.5l0,0
	v226.8C337.7,233.6,335.6,235.6,332.9,235.7z"/>
<title>flowchart-1-mobile</title>
<path class="st0" d="M10,222.7c-0.1-0.1-0.2-0.3-0.2-0.4v-5.2c0-0.1,0.2-0.3,0.3-0.5c0.2,0,11.5-5.9,27.7-9.4
	c1.4-0.4,2.6-1.3,3.3-2.6c0.7-1.3,0.8-2.9,0.2-4.2c-4.5-10.2-4.9-22.1-4.9-22.2c0-0.1,0.2-0.3,0.3-0.4c0.2-0.2,0.4-0.2,0.6,0
	l26.3,15.3c0.2,0.2,0.3,0.4,0.3,0.6l-1.2,11.8c-0.7,6.4-5.6,11.5-12,12.4l-40.1,5.2h2C12.4,223.1,10.3,223.1,10,222.7z"/>
<g id="Layer_2_1_">
	<g id="Layer_1-2">
		<polygon class="st1" points="245.7,147.3 153.4,147 153.4,139.4 245.7,139.4 		"/>
		<polygon class="st2" points="298.7,129.9 193.9,129.7 193.9,122.1 298.7,122.1 		"/>
		<polygon class="st1" points="230.2,181.9 193.9,181.7 193.9,174.1 230.2,174.1 		"/>
		<polygon class="st3" points="230.2,95.2 193.9,94.9 193.9,87.3 230.2,87.3 		"/>
		<polygon class="st2" points="228.2,112.6 150.6,112.3 150.6,104.7 228.2,104.7 		"/>
		<polygon class="st2" points="172.3,216.9 150.6,216.6 150.6,209 172.3,209 		"/>
		<polygon class="st2" points="284.7,43 245.8,42.7 245.8,35.1 284.7,35.1 		"/>
		<polygon class="st4" points="213.8,42.8 136.7,42.7 136.7,35.1 214.3,35.1 		"/>
		<path class="st5" d="M333.1,235.7H122.6c-2.6,0-4.8-2-4.8-4.4V4.4c0-2.4,2.1-4.4,4.8-4.4h210.5c2.6,0,4.8,2,4.8,4.4v226.8
			C337.9,233.7,335.7,235.7,333.1,235.7L333.1,235.7z M122.6,0.9c-2.1,0-3.8,1.6-3.8,3.6v226.7c0,2,1.7,3.5,3.8,3.6h210.5
			c2.1,0,3.8-1.6,3.8-3.6V4.4c0-1.9-1.7-3.5-3.8-3.5H122.6z"/>
		<g>
			<line class="st6" x1="123.1" y1="15.4" x2="330.5" y2="15.4"/>
			<path class="st5" d="M330.5,16H123.1c-0.3,0-0.6-0.3-0.6-0.6c0-0.3,0.3-0.6,0.6-0.6h207.5c0.3,0,0.6,0.3,0.6,0.6
				C331.1,15.7,330.8,16,330.5,16C330.5,16,330.5,16,330.5,16z"/>
		</g>
		<path class="st5" d="M309.1,109.1H138.6c-0.2,0-0.4-0.3-0.4-0.5c0-0.2,0.2-0.3,0.4-0.4h170.5c0.2,0,0.5,0.1,0.5,0.4
			s-0.1,0.5-0.4,0.5C309.2,109.1,309.2,109.1,309.1,109.1z"/>
		<path class="st5" d="M310.5,39.5H138.6c-0.2,0-0.4-0.2-0.4-0.4s0.2-0.4,0.4-0.4h171.9c0.2,0,0.4,0.2,0.4,0.4
			S310.8,39.5,310.5,39.5z"/>
		<path class="st5" d="M296.7,126.4H138.6c-0.2,0-0.4-0.2-0.4-0.4s0.2-0.4,0.4-0.4h158.1c0.2,0,0.4,0.2,0.4,0.4
			C297.2,126.2,297,126.4,296.7,126.4z"/>
		<path class="st5" d="M242.3,143.8H138.6c-0.2,0-0.4-0.2-0.4-0.4s0.2-0.4,0.4-0.4h103.7c0.2,0,0.4,0.2,0.4,0.4
			C242.7,143.6,242.5,143.8,242.3,143.8z"/>
		<path class="st5" d="M298.4,161.2H137.5c-0.2,0-0.4-0.2-0.4-0.4c0-0.2,0.2-0.4,0.4-0.4h160.9c0.2,0,0.4,0.2,0.4,0.4
			C298.8,161,298.6,161.2,298.4,161.2z"/>
		<path class="st5" d="M272,178.6H137.5c-0.2,0-0.4-0.2-0.4-0.4c0-0.2,0.2-0.4,0.4-0.4H272c0.2,0,0.4,0.2,0.4,0.4
			C272.4,178.4,272.2,178.6,272,178.6z"/>
		<path class="st5" d="M298.4,56.9H137.5c-0.2,0-0.4-0.2-0.4-0.4s0.2-0.4,0.4-0.4h160.9c0.2,0,0.4,0.2,0.4,0.4
			S298.6,56.9,298.4,56.9z"/>
		<path class="st5" d="M313.9,74.3H137.5c-0.2,0-0.4-0.2-0.4-0.4s0.2-0.4,0.4-0.4h176.4c0.2,0,0.4,0.2,0.4,0.4
			S314.2,74.3,313.9,74.3z"/>
		<path class="st5" d="M272.2,91.7H137.5c-0.2,0-0.4-0.2-0.4-0.4s0.2-0.4,0.4-0.4h134.6c0.2,0,0.4,0.2,0.4,0.4
			S272.4,91.7,272.2,91.7z"/>
		<g>
			<circle class="st0" cx="128.6" cy="8.7" r="2.6"/>
			<path class="st5" d="M128.6,11.6c-1.6,0-2.9-1.3-2.9-2.9s1.3-2.9,2.9-2.9c1.6,0,2.9,1.3,2.9,2.9l0,0
				C131.5,10.3,130.2,11.6,128.6,11.6z M128.6,6.4c-1.3,0-2.3,1-2.3,2.3c0,1.3,1,2.3,2.3,2.3c1.3,0,2.3-1,2.3-2.3c0,0,0,0,0,0
				C130.9,7.4,129.9,6.4,128.6,6.4z"/>
		</g>
		<g>
			<circle class="st0" cx="139" cy="8.7" r="2.6"/>
			<path class="st5" d="M139,11.6c-1.6,0-2.9-1.3-2.9-2.9s1.3-2.9,2.9-2.9c1.6,0,2.9,1.3,2.9,2.9c0,0,0,0,0,0
				C141.9,10.3,140.6,11.6,139,11.6z M139,6.4c-1.3,0-2.3,1-2.3,2.3s1,2.3,2.3,2.3c1.3,0,2.3-1,2.3-2.3c0,0,0,0,0,0
				C141.3,7.4,140.3,6.4,139,6.4z"/>
		</g>
		<g>
			<circle class="st0" cx="149.3" cy="8.7" r="2.6"/>
			<path class="st5" d="M149.3,11.6c-1.6,0-2.9-1.3-2.9-2.9s1.3-2.9,2.9-2.9s2.9,1.3,2.9,2.9l0,0C152.2,10.3,150.9,11.6,149.3,11.6z
				 M149.3,6.4c-1.3,0-2.3,1-2.3,2.3s1,2.3,2.3,2.3c1.3,0,2.3-1,2.3-2.3c0,0,0,0,0,0C151.6,7.4,150.6,6.4,149.3,6.4z"/>
		</g>
		<path class="st5" d="M298.4,196H137.5c-0.2,0-0.4-0.2-0.4-0.4c0-0.2,0.2-0.4,0.4-0.4h160.9c0.2,0,0.4,0.2,0.4,0.4
			C298.8,195.8,298.6,196,298.4,196z"/>
		<path class="st5" d="M313.9,213.4H137.5c-0.2,0-0.4-0.2-0.4-0.4c0-0.2,0.2-0.4,0.4-0.4h176.4c0.2,0,0.4,0.2,0.4,0.4
			C314.4,213.2,314.2,213.4,313.9,213.4z"/>
		<g>
			<path class="st0" d="M243.9,99.8h180.4c1.2,0,2.1,0.9,2.1,2.1v121.3c0,1.2-0.9,2.1-2.1,2.1H243.9c-1.2,0-2.1-0.9-2.1-2.1V101.9
				C241.8,100.8,242.8,99.8,243.9,99.8z"/>
			<path class="st5" d="M422.8,225.8H245.5c-2.3,0-4.1-1.8-4.1-4.1l0,0V103.4c0-2.3,1.8-4.1,4.1-4.1h177.4c2.3,0,4.1,1.8,4.1,4.1
				v118.2C427,224,425.1,225.8,422.8,225.8C422.8,225.8,422.8,225.8,422.8,225.8z M245.5,100.3c-1.7,0-3.2,1.4-3.2,3.2v0v118.2
				c0,1.7,1.4,3.2,3.1,3.2c0,0,0,0,0,0h177.4c1.7,0,3.2-1.4,3.2-3.2l0,0V103.4c0-1.7-1.4-3.2-3.2-3.2L245.5,100.3z"/>
		</g>
		<g>
			<line class="st6" x1="245.9" y1="112.4" x2="420.7" y2="112.4"/>
			<path class="st5" d="M420.7,113H245.9c-0.3,0-0.6-0.3-0.6-0.6c0-0.3,0.3-0.6,0.6-0.6h174.8c0.3,0,0.6,0.3,0.6,0.6
				C421.2,112.7,421,113,420.7,113z"/>
		</g>
		<g>
			<circle class="st0" cx="250.6" cy="106.7" r="2.2"/>
			<path class="st5" d="M250.6,109.2c-1.4,0-2.5-1.1-2.5-2.5s1.1-2.5,2.5-2.5c1.4,0,2.5,1.1,2.5,2.4
				C253,108.1,251.9,109.2,250.6,109.2C250.6,109.2,250.6,109.2,250.6,109.2z M250.6,104.8c-1,0-1.9,0.8-1.9,1.9
				c0,1,0.8,1.9,1.9,1.9c1,0,1.9-0.8,1.9-1.9C252.4,105.7,251.6,104.8,250.6,104.8z"/>
		</g>
		<g>
			<circle class="st0" cx="259.3" cy="106.7" r="2.2"/>
			<path class="st5" d="M259.3,109.2c-1.4,0-2.5-1.1-2.5-2.5s1.1-2.5,2.5-2.5c1.4,0,2.5,1.1,2.5,2.5c0,0,0,0,0,0
				C261.8,108.1,260.7,109.2,259.3,109.2z M259.3,104.8c-1,0-1.9,0.8-1.9,1.9c0,1,0.8,1.9,1.9,1.9c1,0,1.9-0.8,1.9-1.9
				C261.2,105.7,260.3,104.8,259.3,104.8z"/>
		</g>
		<g>
			<circle class="st0" cx="268" cy="106.7" r="2.2"/>
			<path class="st5" d="M268,109.2c-1.4,0-2.5-1.1-2.5-2.5s1.1-2.5,2.5-2.5c1.4,0,2.5,1.1,2.5,2.5c0,0,0,0,0,0
				C270.5,108.1,269.4,109.2,268,109.2z M268,104.8c-1,0-1.9,0.8-1.9,1.9c0,1,0.8,1.9,1.9,1.9c1,0,1.9-0.8,1.9-1.9
				C269.9,105.7,269,104.8,268,104.8z"/>
		</g>
		<polygon class="st4" points="345.1,194.3 256.8,194.1 256.8,187.6 345.1,187.6 		"/>
		<polygon class="st3" points="336.1,208.9 305.6,208.7 305.6,202.3 336.1,202.3 		"/>
		<polygon class="st7" points="373.9,135.6 288,135.4 288,129 373.9,129 		"/>
		<polygon class="st1" points="328.5,150.3 285.3,150.1 285.3,143.7 328.5,143.7 		"/>
		<g>
			<path class="st5" d="M402.6,191.4H258.9c-0.2,0-0.4-0.2-0.4-0.4c0-0.2,0.2-0.4,0.4-0.4h143.7c0.2,0,0.4,0.2,0.4,0.4
				C403.1,191.2,402.9,191.4,402.6,191.4z"/>
			<path class="st5" d="M403.8,132.8H258.9c-0.2,0-0.4-0.2-0.4-0.4c0-0.2,0.2-0.4,0.4-0.4h144.9c0.2,0,0.4,0.2,0.4,0.4
				C404.3,132.6,404.1,132.8,403.8,132.8z"/>
			<path class="st5" d="M392.2,206H258.9c-0.2,0-0.4-0.2-0.4-0.4c0-0.2,0.2-0.4,0.4-0.4h133.3c0.2,0,0.4,0.2,0.4,0.4
				S392.4,206,392.2,206z"/>
			<path class="st5" d="M393.6,147.4H258.1c-0.2,0-0.4-0.2-0.4-0.4c0-0.2,0.2-0.4,0.4-0.4h135.5c0.2,0,0.4,0.2,0.4,0.4
				S393.8,147.4,393.6,147.4z"/>
			<path class="st5" d="M406.7,162.1H258.1c-0.2,0-0.4-0.2-0.4-0.4c0-0.2,0.2-0.4,0.4-0.4h148.6c0.2,0,0.4,0.2,0.4,0.4
				C407.1,161.9,406.9,162.1,406.7,162.1z"/>
			<path class="st5" d="M371.5,176.7H258.1c-0.2,0-0.4-0.2-0.4-0.4c0-0.2,0.2-0.4,0.4-0.4h113.4c0.2,0,0.4,0.2,0.4,0.4
				S371.7,176.7,371.5,176.7z"/>
		</g>
		<g>
			<path class="st5" d="M57.4,94c3.1-5.9,11.4-6.2,16.4-2.1c2.5,2,3.6,5.2,4,8.2c0.2,1.5,0.8,5.5,1.6,10c-1.3-0.4-2.6-0.6-4-0.6
				c-2.2,0-4.4,0.5-6.3,1.5c1.8-7.2,7.2-15,4-15.1c-5.5-0.2-9.3,6.2-9.3,6.2l0.4,14.2c-0.9,1.9-1.4,3.9-1.4,6l-6.4-6.4
				C56.4,116,53.4,103.6,57.4,94z"/>
			<path class="st5" d="M75.4,93.4c3.4,4.6,5.1,10.2,4.6,15.9c-0.2,1.4-0.4,2.7-0.5,4.1c0-0.2,0.1,7.1,1.8,8.7c0-0.1-1.8,1.5-5.9,0
				c-2.1-0.7-2.6-2.7-5.9-2.3c-1.7,0.3-5.4-0.6-6.6-3.5c-0.1-0.1-5.5-2.8-5.5-2.8l2.8-15.4l8.6-2.5L75.4,93.4z"/>
			<path class="st5" d="M80.5,155.9l-16.9-12.2c-0.1-0.1-0.2-0.3-0.2-0.4l0.8-8.5c0-0.1,0-0.2,0.1-0.2l4.5-6.5
				c0.1-0.1,0.2-0.2,0.4-0.2l0,0c0.2,0,0.3,0.1,0.4,0.2l17.8,25.2c0.1,0.1,0.1,0.3,0.1,0.4c-0.1,0.2-0.2,0.3-0.3,0.3l-6.1,2
				c-0.1,0-0.1,0-0.2,0C80.7,156,80.6,156,80.5,155.9z M69.1,129.1l-4,5.8l-0.7,8.1l16.5,12l5.2-1.8L69.1,129.1z"/>
			<g>
				<path class="st0" d="M65.3,116.2c8,5.8,1.8,55.1,1.8,55.1l-32-6.2C35.1,165.1,37.6,115,65.3,116.2z"/>
				<path class="st5" d="M67,171.9l-32-6.2c-0.2,0-0.4-0.3-0.4-0.5c0-0.5,2.8-50.6,30.8-49.4c0.1,0,0.2,0,0.3,0.1
					c8.2,5.9,2.2,53.6,2,55.6c0,0.1-0.1,0.3-0.2,0.3c-0.1,0.1-0.2,0.1-0.3,0.1L67,171.9z M35.6,164.7l31.1,6
					c0.6-5.3,5.6-48.4-1.5-54C39.8,115.8,36,159.8,35.6,164.7L35.6,164.7z"/>
			</g>
			<path class="st5" d="M6.9,222.6c0,0-2.8,3-4.6,9.9C2,234,2.5,235.7,0,235.7v-8.4l1.2-6.9H0v-3.8c0,0,6.1-1,6.9,1.1V222.6z"/>
			<g>
				<path class="st0" d="M9.6,222.2l-2.9,0.7l0,0c-0.9-1.2-0.9-2.9-0.1-4.2l0.1-0.2l3-1L9.6,222.2z"/>
				<path class="st5" d="M6.4,223.1c-0.9-1.3-1-3.1-0.2-4.5l0.1-0.2c0-0.1,0.1-0.1,0.2-0.1l3-1c0.1,0,0.2,0,0.2,0
					c0.1,0.1,0.1,0.1,0.1,0.2v4.7c0,0.1-0.1,0.2-0.2,0.3l-2.9,0.7H6.6C6.5,223.1,6.5,223.1,6.4,223.1z M9.3,217.9l-2.5,0.8l-0.1,0.1
					c-0.7,1.1-0.7,2.6,0,3.7l2.6-0.6V217.9z"/>
			</g>
			<path class="st5" d="M58.7,252.4c0,0,0,4.7,9.4,7.5c1.9,0.6,1.3,1.1,1.7,2H59l-4.2-4.8l-1.3,1.1l-3.1-3c0,0,1.4-4.3,3.8-4.4
				L58.7,252.4z"/>
			<g>
				<path class="st0" d="M60.5,248.4l-1.8,4l0,0c-1.6,0.5-3.3-0.1-4.4-1.3l-0.2-0.2l1.4-4.2L60.5,248.4z"/>
				<path class="st5" d="M54.1,251.2l-0.2-0.2c0-0.1,0-0.2,0-0.3l1.4-4.2c0-0.1,0.1-0.1,0.1-0.2c0.1,0,0.1,0,0.2,0l4.9,1.7
					c0.1,0,0.1,0.1,0.2,0.1c0,0.1,0,0.1,0,0.2l-1.8,4.1c0,0.1-0.1,0.1-0.2,0.1c-0.4,0.1-0.8,0.2-1.2,0.2
					C56.3,252.9,55,252.3,54.1,251.2z M60.1,248.5l-4.4-1.5l-1.3,3.8l0.1,0.1c1,1.2,2.5,1.7,4,1.3L60.1,248.5z"/>
			</g>
			<path class="st5" d="M9.2,223.9c-0.1-0.1-0.2-0.3-0.2-0.4v-6c0-0.2,0.1-0.4,0.3-0.5c0.1-0.1,10.1-6,27.5-9.6
				c1.5-0.3,2.8-1.3,3.6-2.7c0.7-1.4,0.8-3.1,0.1-4.5c-4.8-11-5.3-23.7-5.3-23.9c0-0.2,0.1-0.4,0.3-0.5c0.2-0.1,0.4-0.1,0.6,0
				L64.2,192c0.2,0.1,0.3,0.3,0.3,0.6l-1.3,12.6c-0.7,6.8-6,12.3-12.8,13.2L9.6,224H9.6C9.4,224,9.3,224,9.2,223.9z M36.4,177.2
				c0.2,3.2,1.2,13.4,5.1,22.4c1.4,3.2,0,7-3.2,8.4c-0.4,0.2-0.8,0.3-1.3,0.4c-15.5,3.3-25.1,8.3-26.9,9.3v5l40.1-5.5
				c6.3-0.9,11.1-5.9,11.8-12.2l1.3-12.2L36.4,177.2z"/>
			<g>
				<path class="st0" d="M65.1,174.4c0,0,14.1,26.4,14.1,34.6s-19,40.1-19,40.1h-5.4c0,0,1-20.2,4.6-37c0.8-3.3-0.3-6.8-2.8-9.1
					C45.2,192.2,35,174.4,35,174.4H65.1z"/>
				<path class="st5" d="M54.4,249.5c-0.1-0.1-0.2-0.3-0.2-0.4c0-0.2,1-20.5,4.6-37.1c0.7-3.1-0.3-6.3-2.6-8.5
					c-11.5-10.8-21.7-28.6-21.8-28.8c-0.1-0.2-0.1-0.4,0-0.6c0.1-0.2,0.3-0.3,0.5-0.3h30.2c0.2,0,0.4,0.1,0.5,0.3
					c0.6,1.1,14.2,26.6,14.2,34.9s-18.2,39.1-19,40.4c-0.1,0.2-0.3,0.3-0.5,0.3h-5.5C54.7,249.7,54.5,249.6,54.4,249.5z M78.6,209
					c0-7.5-12.3-31-13.8-34H36c2.2,3.7,11.2,18.4,21.1,27.7c2.6,2.5,3.6,6.1,2.9,9.5c-3.3,14.9-4.4,32.8-4.6,36.3h4.5
					C61.8,245.3,78.6,216.5,78.6,209z"/>
			</g>
			<g>
				<path class="st0" d="M67.4,112.9v7.5c-2.1-0.1-4.1-0.8-5.8-2.1c-0.2,0-2.6-5.4-2.6-5.4l6-3L67.4,112.9z"/>
				<path class="st5" d="M61.3,118.6L61.3,118.6c-0.3-0.3-0.9-1.5-2.7-5.6c-0.1-0.2,0-0.5,0.2-0.7l6.1-3c0.2-0.1,0.5-0.1,0.6,0.1
					l2.3,3c0.1,0.1,0.1,0.2,0.1,0.3v7.5c0,0.3-0.2,0.5-0.5,0.5C65.2,120.8,63.1,120,61.3,118.6z M65,110.5l-5.2,2.6
					c1,2.2,2,4.4,2.2,4.8l0,0c1.4,1.1,3.1,1.8,4.9,2V113L65,110.5z"/>
			</g>
			<g>
				<path class="st0" d="M71.7,94.2l-6.8,3.1l-1.9,8.5c-0.5,2.3,0.1,4.7,1.7,6.4c1.7,1.5,3.8,2.5,6.1,2.9c0.9,0.2,1.8,0.1,2.6-0.2
					c1.4-1.5,2.1-4.3,2.5-7.2c0.5-0.1,1.3-0.3,1.3-0.4c-0.2-2.4-0.5-4.8-1-7.2l0,0C76.1,100.1,75.3,95.8,71.7,94.2z"/>
				<path class="st5" d="M70.7,115.6c-2.4-0.4-4.6-1.4-6.4-3c-1.6-1.9-2.3-4.4-1.8-6.8l1.8-8.5c0-0.2,0.1-0.3,0.3-0.3l6.8-3.1
					c0.1-0.1,0.3-0.1,0.4,0c3.8,1.6,4.8,6,4.8,6.2c0.5,2.4,0.8,4.8,1,7.3l0,0c0,0.1,0,0.2-0.1,0.3c-0.1,0.2-0.3,0.3-1.3,0.6
					c-0.5,3.3-1.3,5.7-2.6,7.1l-0.1,0.1c-0.5,0.3-1.1,0.4-1.7,0.4C71.6,115.8,71.1,115.7,70.7,115.6z M75.4,107.7
					c0-0.2,0.2-0.4,0.4-0.4l0.9-0.2c-0.2-2.3-0.5-4.6-0.9-6.8c0,0-0.8-3.9-4-5.4l-6.3,2.9l-1.8,8.3c-0.5,2.1,0.1,4.3,1.5,5.9
					c1.6,1.5,3.6,2.4,5.8,2.8c0.7,0.2,1.5,0.1,2.2-0.1C74.2,113.3,75,111,75.4,107.7z M77.1,107.3L77.1,107.3z"/>
			</g>
			<path class="st5" d="M74.3,95.5c0.5,4-10.5,6.7-10.5,6.7L62.1,97l5.7-4.9l5.7,2C73.9,94.5,74.1,95,74.3,95.5z"/>
			<path class="st0" d="M62.2,102.2c0.9-0.4,1.9-0.1,2.5,0.7c0.6,0.6,0.6,1.7,0,2.3c0,0,0,0-0.1,0.1c-0.9,0.4-1.9,0.1-2.5-0.7
				C61.5,104,61.5,102.9,62.2,102.2C62.2,102.3,62.2,102.2,62.2,102.2z"/>
			<path class="st5" d="M53.9,119.1c-1-3.2-0.4-4.7,0-5.6c1.9-2.3,0.8-6.8,0.9-8c0.2-10.4,4-13.4,4-13.4L57.9,103l5.1,2.9
				c-0.7,2.8,3.3,14.5,1.5,14.5C64.5,120.4,59.1,116.2,53.9,119.1"/>
			<g>
				
					<rect x="18.4" y="154.4" transform="matrix(0.9603 -0.2788 0.2788 0.9603 -43.4072 27.2597)" class="st0" width="111.4" height="23.7"/>
				<path class="st5" d="M23.7,193.6c-0.1-0.1-0.2-0.2-0.2-0.3l-6.6-22.8c-0.1-0.3,0.1-0.5,0.3-0.6l107-31.1c0.1,0,0.3,0,0.4,0.1
					c0.1,0.1,0.2,0.2,0.2,0.3l6.6,22.8c0.1,0.3-0.1,0.5-0.4,0.6l-107,31.1h-0.1C23.8,193.6,23.8,193.6,23.7,193.6z M124,139.9
					L18,170.7l6.3,21.8l106-30.8L124,139.9z"/>
			</g>
			<g>
				<line class="st6" x1="21.1" y1="171" x2="26.7" y2="190.5"/>
				<path class="st5" d="M26.7,191c0,0,0.1,0,0.1,0c0.3-0.1,0.4-0.4,0.3-0.6l-5.6-19.5c-0.1-0.3-0.4-0.4-0.6-0.3
					c-0.3,0.1-0.4,0.4-0.3,0.6l5.6,19.5C26.3,190.9,26.5,191,26.7,191z"/>
			</g>
			<g>
				<path class="st0" d="M35.5,181.5c1.4-2.6,3.1-5.1,4.9-7.5c-0.6-1.8-6.7-20.4-5.4-27c1.3-7,7.8-14.3,7.8-14.3l11.2,6.9l-8,9.2
					l-1.1,26.2l0,0v5c0,0.8-0.3,1.6-0.8,2.3c-0.3,0.5-0.6,0.9-1,1.4l0,0l-0.1,0.1l-0.1,0.1c-1.4,1.5-3.1,2.6-4.9,3.4
					c0.2-1,0.6-1.9,1.1-2.7c0,0-2.6,2-3.7,1.9c-0.2-0.3,1.1-2.7,1.9-3.7v-0.2c-1,0.8-2.1,1.5-3.3,2.1
					C33.7,184.6,34.8,182.5,35.5,181.5z"/>
				<path class="st5" d="M37.4,187.8c-0.2-0.3,0-0.8,0.2-1.5c-0.7,0.5-1.5,0.8-2.3,0.9l0,0c-0.2,0-0.3-0.1-0.4-0.2
					c-0.3-0.4,0.2-1.5,0.7-2.4c-0.5,0.3-1,0.5-1.5,0.8c-0.2,0.1-0.5,0-0.6-0.2c-0.5-0.7,1.3-3.4,1.6-3.8c1.4-2.5,3-5,4.7-7.3
					c-1-3-6.6-20.5-5.3-27c1.4-7,7.7-14.2,7.9-14.5c0.2-0.2,0.4-0.2,0.6-0.1l11.2,6.9c0.1,0.1,0.2,0.2,0.2,0.4c0,0.1,0,0.3-0.1,0.4
					l-7.9,9.1l-1.1,26v5c0,0.9-0.3,1.8-0.8,2.6c-0.3,0.5-0.7,1-1.1,1.4l-0.2,0.3c-1.5,1.5-3.2,2.7-5.1,3.5c-0.1,0-0.1,0-0.2,0
					C37.6,187.9,37.5,187.9,37.4,187.8z M42.9,133.4c-1.2,1.5-6.3,7.8-7.4,13.7c-1,5.3,2.9,19.3,5.4,26.8c0.1,0.2,0,0.3-0.1,0.5
					c-1.8,2.3-3.4,4.8-4.8,7.4v0.1c-0.5,0.6-0.9,1.3-1.2,2.1c0.8-0.4,1.5-0.9,2.2-1.5c0.2-0.1,0.4-0.2,0.6-0.1
					c0.2,0.1,0.3,0.3,0.2,0.5v0.2c0,0.1,0,0.2-0.1,0.2c-0.6,0.8-1.2,1.7-1.6,2.7c1-0.4,1.9-1,2.7-1.7c0.2-0.2,0.5-0.1,0.7,0.1
					c0.1,0.2,0.1,0.4,0,0.6c-0.3,0.5-0.6,1-0.8,1.6c1.4-0.7,2.7-1.7,3.8-2.9l0.2-0.2c0.4-0.4,0.7-0.9,1-1.3c0.4-0.6,0.6-1.3,0.6-2.1
					v-5l1.2-26.2c0-0.1,0.1-0.2,0.1-0.3l7.7-8.8L42.9,133.4z M33.9,184.8L33.9,184.8z"/>
			</g>
			<path class="st5" d="M74.3,110.9c0.6,0,1.2-0.2,1.7-0.5c0.2-0.1,0.3-0.4,0.2-0.7c0,0,0,0,0,0c-0.2-0.2-0.5-0.3-0.7-0.1
				c-0.9,0.6-2.1,0.3-2.7-0.6c-0.1-0.2-0.5-0.3-0.7-0.1c0,0,0,0,0,0c-0.2,0.1-0.3,0.4-0.2,0.7c0,0,0,0,0,0c0.4,0.7,1.1,1.1,1.9,1.3
				C74,110.9,74.1,110.9,74.3,110.9z"/>
			<path class="st5" d="M61.7,90.1c0,0-7.5,1.3-8.3,14.7c-0.2,0,0.8,7.8-2.8,10c0,0-2.9,1.4-0.8,7.7c-0.1,0.1,2.8-3.3,5.6-4.1
				c0,0.2,6.8-21.4,6.8-21.4L61.7,90.1z"/>
			<g>
				<g>
					<polygon class="st1" points="153.5,146.9 154.8,139.9 147.4,142 149.2,148.2 					"/>
					<path class="st8" d="M146.8,141.7l8.6-2.5l-1.5,8.1l-5.1,1.5L146.8,141.7z M154.2,140.6l-6.1,1.8l1.5,5.2l3.5-1L154.2,140.6z"
						/>
				</g>
				<g>
					<polygon class="st0" points="126,144.9 130.9,162.1 145.6,151.2 143.4,143.8 143.1,142.6 142.5,140.8 124.3,139.4 125.5,143.2 
											"/>
					<path class="st5" d="M130.8,162.6c-0.2-0.1-0.3-0.2-0.3-0.3l-6.6-22.8c0-0.2,0-0.4,0.1-0.5c0.1-0.1,0.3-0.2,0.4-0.2l18.2,1.4
						c0.2,0,0.4,0.2,0.4,0.4l3,10.4c0.1,0.2,0,0.4-0.2,0.5l-14.6,10.9c-0.1,0.1-0.2,0.1-0.3,0.1H130.8z M142.1,141.2l-17.1-1.3
						l1.4,4.9l0,0l4.8,16.5L145,151L142.1,141.2z"/>
				</g>
				<g>
					
						<rect x="144" y="140" transform="matrix(0.9642 -0.2652 0.2652 0.9642 -33.3339 43.976)" class="st0" width="4.3" height="10.8"/>
					<path class="st5" d="M145.3,151.6c-0.1-0.1-0.2-0.2-0.2-0.3l-2.9-10.4c0-0.1,0-0.3,0.1-0.4c0.1-0.1,0.2-0.2,0.3-0.2l4.1-1.1
						c0.3-0.1,0.5,0.1,0.6,0.4l2.9,10.4c0.1,0.3-0.1,0.5-0.3,0.6c0,0,0,0,0,0l-4.1,1.1c0,0-0.1,0-0.1,0
						C145.5,151.7,145.4,151.7,145.3,151.6z M146.4,140.3l-3.1,0.9l2.6,9.4l3.1-0.9L146.4,140.3z"/>
				</g>
			</g>
		</g>
	</g>
</g>
<line id="Line_213" class="st9" x1="5.5" y1="263.9" x2="423" y2="263.9"/>
</svg>
