<?xml version="1.0" encoding="utf-8"?>
<!-- Generator: Adobe Illustrator 22.0.1, SVG Export Plug-In . SVG Version: 6.00 Build 0)  -->
<svg version="1.1" id="Layer_1" xmlns="http://www.w3.org/2000/svg" xmlns:xlink="http://www.w3.org/1999/xlink" x="0px" y="0px"
	 viewBox="0 0 1093.3 432.1" style="enable-background:new 0 0 1093.3 432.1;" xml:space="preserve">
<style type="text/css">
	.st0{fill:#FFFFFF;}
	.st1{fill:#0E1D2B;}
	.st2{fill:none;}
	.st3{fill:#E6E7E7;}
	.st4{fill:#5BBE82;}
	.st5{fill:#00A696;}
	.st6{fill:#4771B2;}
	.st7{fill:#ACCEED;}
	.st8{fill:#EC8558;}
	.st9{fill:#F8A686;}
	.st10{fill:#AAB8DE;}
	.st11{fill:#3B67B1;}
	.st12{fill:#929497;}
	.st13{opacity:0.3;}
	.st14{fill:#D3D3D3;}
	.st15{fill:#F8F7F7;}
</style>
<path class="st0" d="M360.1,2c-5.5,0-9.9,4.5-10,9.9v408.3c0,5.5,4.5,9.9,10,9.9h321.1c5.5,0,9.9-4.5,9.9-9.9V11.9
	c-0.1-5.5-4.5-9.9-9.9-9.9H360.1z"/>
<title>flowchart-6</title>
<path class="st1" d="M681.2,432.1H360.1c-6.6,0-11.9-5.3-11.9-11.9V11.9c0-6.6,5.3-11.9,11.9-11.9h321.1c6.6,0,11.9,5.3,11.9,11.9
	v408.4C693.1,426.8,687.8,432.1,681.2,432.1z M360.1,2c-5.5,0-9.9,4.5-10,9.9v408.3c0,5.5,4.5,9.9,10,9.9h321.1
	c5.5,0,9.9-4.5,9.9-9.9V11.9c-0.1-5.5-4.5-9.9-9.9-9.9H360.1z"/>
<path class="st1" d="M674.7,39.8H361.2c-0.5,0.1-1.1-0.2-1.2-0.7c-0.1-0.5,0.2-1.1,0.7-1.2c0.2,0,0.3,0,0.5,0h313.4
	c0.5-0.1,1.1,0.2,1.2,0.7c0.1,0.5-0.2,1.1-0.7,1.2C675,39.9,674.8,39.9,674.7,39.8z"/>
<path class="st1" d="M375.4,28.1c-4.2,0-7.5-3.4-7.5-7.5c0-4.2,3.4-7.5,7.5-7.5c4.1,0,7.5,3.4,7.5,7.5
	C382.9,24.8,379.5,28.2,375.4,28.1C375.4,28.2,375.4,28.2,375.4,28.1z M375.4,15c-3.1,0-5.6,2.5-5.6,5.6s2.5,5.6,5.6,5.6
	s5.6-2.5,5.6-5.6c0,0,0,0,0,0C380.9,17.6,378.4,15.1,375.4,15z"/>
<path class="st1" d="M401.6,28.1c-4.2,0-7.5-3.4-7.5-7.5s3.4-7.5,7.5-7.5c4.2,0,7.5,3.4,7.5,7.5c0,0,0,0,0,0
	C409.1,24.8,405.7,28.1,401.6,28.1z M401.6,15c-3.1,0-5.6,2.5-5.6,5.6s2.5,5.6,5.6,5.6s5.6-2.5,5.6-5.6c0,0,0,0,0,0
	C407.1,17.6,404.6,15.1,401.6,15z"/>
<path class="st1" d="M427.8,28.1c-4.2,0-7.5-3.4-7.5-7.5c0-4.2,3.4-7.5,7.5-7.5c4.1,0,7.5,3.4,7.5,7.5
	C435.3,24.8,431.9,28.2,427.8,28.1C427.8,28.2,427.8,28.2,427.8,28.1z M427.8,15c-3.1,0-5.6,2.5-5.6,5.6s2.5,5.6,5.6,5.6
	s5.6-2.5,5.6-5.6c0,0,0,0,0,0C433.3,17.6,430.8,15.1,427.8,15z"/>
<line class="st2" x1="392.3" y1="192.1" x2="571.4" y2="192.1"/>
<path class="st1" d="M571.4,193.1H392.3c-0.6,0-1-0.4-1-1s0.4-1,1-1h179.1c0.6,0,1,0.4,1,1S572,193.1,571.4,193.1z"/>
<line class="st2" x1="392.3" y1="217.8" x2="590.7" y2="217.8"/>
<path class="st1" d="M590.7,218.8H392.3c-0.5-0.1-0.9-0.7-0.8-1.2c0.1-0.4,0.4-0.7,0.8-0.8h198.4c0.5,0.1,0.9,0.7,0.8,1.2
	C591.4,218.4,591.1,218.7,590.7,218.8z"/>
<line class="st2" x1="392.2" y1="166.4" x2="560.3" y2="166.4"/>
<path class="st1" d="M560.3,167.4H392.2c-0.5-0.1-0.9-0.7-0.8-1.2c0.1-0.4,0.4-0.7,0.8-0.8h168.1c0.5,0.1,0.9,0.7,0.8,1.2
	C561,167,560.7,167.3,560.3,167.4z"/>
<line class="st2" x1="392.3" y1="348.1" x2="646.4" y2="348.1"/>
<path class="st1" d="M646.4,349.1H392.3c-0.5-0.1-0.9-0.7-0.8-1.2c0.1-0.4,0.4-0.7,0.8-0.8h254.1c0.5-0.1,1.1,0.2,1.2,0.8
	c0.1,0.5-0.2,1.1-0.8,1.2C646.7,349.1,646.5,349.1,646.4,349.1z"/>
<line class="st2" x1="392.3" y1="245.3" x2="624.1" y2="245.3"/>
<path class="st1" d="M624.1,246.3H392.3c-0.6,0-1-0.4-1-1s0.4-1,1-1h231.8c0.6,0,1,0.4,1,1S624.7,246.3,624.1,246.3z"/>
<line class="st2" x1="392.3" y1="373.8" x2="590.7" y2="373.8"/>
<path class="st1" d="M590.7,374.8H392.3c-0.6,0-1-0.4-1-1s0.4-1,1-1h198.4c0.6,0,1,0.4,1,1S591.2,374.8,590.7,374.8z"/>
<line class="st2" x1="392.3" y1="271" x2="646.4" y2="271"/>
<path class="st1" d="M646.4,272H392.3c-0.5-0.1-0.9-0.7-0.8-1.2c0.1-0.4,0.4-0.7,0.8-0.8h254.1c0.5-0.1,1.1,0.2,1.2,0.8
	c0.1,0.5-0.2,1.1-0.8,1.2C646.7,272,646.5,272,646.4,272z"/>
<line class="st2" x1="392.3" y1="296.7" x2="640.8" y2="296.7"/>
<path class="st1" d="M640.8,297.7H392.3c-0.5-0.1-0.9-0.7-0.8-1.2c0.1-0.4,0.4-0.7,0.8-0.8h248.5c0.5-0.1,1.1,0.2,1.2,0.8
	c0.1,0.5-0.2,1.1-0.8,1.2C641.1,297.7,641,297.7,640.8,297.7z"/>
<line class="st2" x1="392.3" y1="322.4" x2="615.8" y2="322.4"/>
<path class="st1" d="M615.8,323.4H392.3c-0.5-0.1-0.9-0.7-0.8-1.2c0.1-0.4,0.4-0.7,0.8-0.8h223.5c0.5-0.1,1.1,0.2,1.2,0.8
	c0.1,0.5-0.2,1.1-0.8,1.2C616.1,323.4,615.9,323.4,615.8,323.4z"/>
<rect x="392.3" y="85.7" class="st3" width="173.4" height="50.1"/>
<circle class="st0" cx="665.4" cy="135.9" r="29.2"/>
<path class="st0" d="M694.1,63.7c-9-3.5-18.8-5.5-29.1-5.5c-44,0-79.7,35.7-79.7,79.7c0,44,35.7,79.7,79.7,79.7
	c10.3,0,20.1-2,29.1-5.5V63.7z"/>
<g>
	<g>
		<path class="st4" d="M735.3,130.8L735.3,130.8c-1.8-17.8-10.5-34.2-24.1-45.8l-45.3,53l7.2,69.4
			C711.4,203.4,739.3,169.1,735.3,130.8z"/>
		<path class="st5" d="M715.3,132.9c-1.3-12.7-7.4-24.4-17.1-32.6L665.9,138l5.1,49.4C698.3,184.6,718.1,160.2,715.3,132.9
			C715.3,132.9,715.3,132.9,715.3,132.9z"/>
		<path class="st6" d="M711.2,85c-14.5-12.4-33.5-18.4-52.5-16.4l7.2,69.4L711.2,85z"/>
		<path class="st7" d="M660.8,88.6l5.1,49.4l32.2-37.7C687.8,91.4,674.3,87.2,660.8,88.6z"/>
		<path class="st8" d="M665.9,138l12.9-68.6c-37.9-7.2-74.3,17.7-81.5,55.6c-4.3,22.7,2.9,46,19.2,62.3L665.9,138z"/>
		<path class="st9" d="M675.1,89.2c-26.9-5.1-52.9,12.7-58,39.6c-3,16.1,2.1,32.7,13.7,44.3l35.1-35.1L675.1,89.2z"/>
		<path class="st10" d="M604.3,170.7c13.3,25.1,40.6,39.6,68.8,36.7l-7.2-69.4L604.3,170.7z"/>
		<path class="st11" d="M665.9,138L622,161.3c9.5,17.9,28.9,28.2,49,26.1l0,0L665.9,138z"/>
		<polygon class="st0" points="672.1,207.5 664.9,137.9 678.1,69.3 680.1,69.7 666.9,138 674.1,207.3 		"/>
		<polygon class="st0" points="604.7,171.6 603.7,169.8 665.2,137.2 710.4,84.3 712,85.6 666.5,138.8 666.4,138.9 		"/>
	</g>
	<circle class="st0" cx="665.7" cy="136.6" r="38.1"/>
	<g>
		<path class="st12" d="M650.5,143.2c-0.1-2.6,1.4-5,3.9-5.9c-1.8-0.9-3-2.8-2.9-4.8c0-4,2.7-5.7,6.7-5.7s6.7,1.8,6.7,5.7
			c0.1,2-1.1,3.9-2.9,4.8c2.4,0.9,4,3.3,3.9,5.9c0,4.5-3.1,6.7-7.7,6.7S650.5,147.7,650.5,143.2z M652.7,143.2
			c0,3.3,2.3,4.7,5.5,4.7s5.5-1.4,5.5-4.7s-2.1-4.8-5.5-4.8S652.7,139.9,652.7,143.2z M653.7,132.6c0,2.6,1.8,3.9,4.5,3.9
			s4.5-1.3,4.5-3.9s-1.7-3.8-4.5-3.8S653.6,130,653.7,132.6L653.7,132.6z"/>
		<path class="st12" d="M676.4,136c5.4,0,7,3.4,7,7.1c0,4.3-2.6,6.8-7.6,6.8c-2.9,0.2-5.6-1.3-7.1-3.7c-0.1-0.2-0.2-0.4-0.2-0.6
			c0-0.6,0.5-1,1-1c0.4,0,0.7,0.2,0.9,0.5c1.1,1.9,3.2,2.9,5.4,2.8c3.7,0,5.4-1.7,5.4-4.8s-1.2-5.1-5-5.1h-2.3c-0.6,0-1-0.4-1-1
			c0-0.3,0.1-0.5,0.3-0.7l6.1-7h-8.5c-0.6,0-1-0.4-1-1c0-0.6,0.4-1,1-1h10.7c0.6,0,1,0.4,1,1c0,0.3-0.1,0.5-0.3,0.7L676,136
			L676.4,136z"/>
	</g>
</g>
<g class="st13">
	<path class="st0" d="M9.8,40.2c-4.5,0-8.2,3.7-8.2,8.2v337.1c0,4.5,3.7,8.2,8.2,8.2h265.1c4.5,0,8.2-3.7,8.2-8.2V48.5
		c0-4.5-3.7-8.2-8.2-8.2H9.8z"/>
	<path class="st1" d="M274.9,395.4H9.8c-5.4,0-9.8-4.4-9.8-9.8V48.5c0-5.4,4.4-9.8,9.8-9.8h265.1c5.4,0,9.8,4.4,9.8,9.8v337.1
		C284.7,391,280.3,395.3,274.9,395.4z M9.8,40.2c-4.5,0-8.2,3.7-8.2,8.2v337.1c0,4.5,3.7,8.2,8.2,8.2h265.1c4.5,0,8.2-3.7,8.2-8.2
		V48.5c0-4.5-3.7-8.2-8.2-8.2H9.8z"/>
	<path class="st1" d="M269.5,71.5H10.8c-0.4,0-0.8-0.3-0.9-0.7s0.3-0.8,0.7-0.9c0.1,0,0.1,0,0.2,0h258.7c0.4,0,0.8,0.5,0.7,0.9
		C270.2,71.2,269.9,71.5,269.5,71.5z"/>
	<path class="st1" d="M22.4,61.9c-3.4,0-6.2-2.8-6.2-6.2c0-3.4,2.8-6.2,6.2-6.2c3.4,0,6.2,2.8,6.2,6.2l0,0
		C28.6,59.1,25.9,61.9,22.4,61.9z M22.4,51.1c-2.5,0-4.6,2.1-4.6,4.6c0,2.5,2.1,4.6,4.6,4.6s4.6-2.1,4.6-4.6l0,0
		C27,53.1,25,51.1,22.4,51.1z"/>
	<path class="st1" d="M44.1,61.9c-3.4,0-6.2-2.8-6.2-6.2s2.8-6.2,6.2-6.2c3.4,0,6.2,2.8,6.2,6.2C50.3,59.1,47.5,61.9,44.1,61.9z
		 M44.1,51.1c-2.5,0-4.6,2.1-4.6,4.6s2.1,4.6,4.6,4.6c2.5,0,4.6-2.1,4.6-4.6C48.7,53.1,46.6,51.1,44.1,51.1z"/>
	<path class="st1" d="M65.7,61.9c-3.4,0-6.2-2.8-6.2-6.2c0-3.4,2.8-6.2,6.2-6.2c3.4,0,6.2,2.8,6.2,6.2c0,0,0,0,0,0
		C71.9,59.1,69.1,61.9,65.7,61.9z M65.7,51.1c-2.5,0-4.6,2.1-4.6,4.6s2.1,4.6,4.6,4.6c2.5,0,4.6-2.1,4.6-4.6v0
		C70.3,53.1,68.2,51.1,65.7,51.1z"/>
	<line class="st2" x1="36.4" y1="174.2" x2="175.6" y2="174.2"/>
	<path class="st1" d="M175.6,175H36.4c-0.4,0-0.8-0.5-0.7-0.9c0-0.4,0.3-0.7,0.7-0.7h139.3c0.4,0,0.8,0.5,0.7,0.9
		C176.3,174.7,176,175,175.6,175z"/>
	<line class="st2" x1="36.4" y1="195.4" x2="151" y2="195.4"/>
	<path class="st1" d="M151,196.3H36.4c-0.4,0-0.8-0.5-0.7-0.9c0-0.4,0.3-0.7,0.7-0.7H151c0.4,0,0.8,0.3,0.9,0.7
		c0,0.4-0.3,0.8-0.7,0.9C151.1,196.3,151.1,196.3,151,196.3z"/>
	<line class="st2" x1="36.5" y1="153" x2="172.6" y2="153"/>
	<path class="st1" d="M172.6,153.8H36.5c-0.4,0-0.8-0.3-0.9-0.7c0-0.4,0.3-0.8,0.7-0.9c0.1,0,0.1,0,0.2,0h136.1
		c0.4,0,0.8,0.3,0.9,0.7c0,0.4-0.3,0.8-0.7,0.9C172.7,153.8,172.6,153.8,172.6,153.8z"/>
	<line class="st2" x1="36.4" y1="132.9" x2="174.6" y2="132.9"/>
	<path class="st1" d="M174.6,133.7H36.4c-0.4,0-0.8-0.5-0.7-0.9c0-0.4,0.3-0.7,0.7-0.7h138.2c0.4,0,0.8,0.5,0.7,0.9
		C175.2,133.4,174.9,133.7,174.6,133.7z"/>
	<line class="st2" x1="36.4" y1="111.7" x2="182" y2="111.7"/>
	<path class="st1" d="M182,112.5H36.4c-0.4,0-0.8-0.5-0.7-0.9c0-0.4,0.3-0.7,0.7-0.7H182c0.4,0,0.8,0.5,0.7,0.9
		C182.7,112.2,182.4,112.5,182,112.5z"/>
	<line class="st2" x1="36.3" y1="303" x2="144.5" y2="303"/>
	<path class="st1" d="M144.5,303.8H36.3c-0.4-0.1-0.7-0.5-0.7-0.9c0.1-0.3,0.3-0.6,0.7-0.7h108.2c0.4,0.1,0.7,0.5,0.7,0.9
		C145.1,303.5,144.8,303.7,144.5,303.8z"/>
	<line class="st2" x1="36.4" y1="218.1" x2="132.1" y2="218.1"/>
	<path class="st1" d="M132.1,219H36.4c-0.4,0-0.8-0.4-0.8-0.8s0.4-0.8,0.8-0.8l0,0h95.7c0.4,0,0.8,0.4,0.8,0.8S132.5,219,132.1,219z
		"/>
	<line class="st2" x1="36.4" y1="324.2" x2="200.2" y2="324.2"/>
	<path class="st1" d="M200.2,325H36.4c-0.4,0-0.8-0.5-0.7-0.9c0-0.4,0.3-0.7,0.7-0.7h163.8c0.4,0,0.8,0.5,0.7,0.9
		C200.9,324.7,200.6,325,200.2,325z"/>
	<line class="st2" x1="36.4" y1="260.6" x2="154.2" y2="260.6"/>
	<path class="st1" d="M154.2,261.4H36.4c-0.4,0-0.8-0.5-0.7-0.9c0-0.4,0.3-0.7,0.7-0.7h117.8c0.4,0,0.8,0.3,0.9,0.7
		c0,0.4-0.3,0.8-0.7,0.9C154.3,261.4,154.2,261.4,154.2,261.4z"/>
	<line class="st2" x1="36.4" y1="281.8" x2="133.5" y2="281.8"/>
	<path class="st1" d="M133.5,282.6H36.4c-0.4,0-0.8-0.5-0.7-0.9c0-0.4,0.3-0.7,0.7-0.7h97.1c0.4,0,0.8,0.3,0.9,0.7
		c0,0.4-0.3,0.8-0.7,0.9C133.7,282.6,133.6,282.6,133.5,282.6L133.5,282.6z"/>
	<line class="st2" x1="36.4" y1="344.4" x2="246.2" y2="344.4"/>
	<path class="st1" d="M246.2,345.2H36.4c-0.4,0-0.8-0.5-0.7-0.9c0-0.4,0.3-0.7,0.7-0.7h209.7c0.4,0,0.8,0.5,0.7,0.9
		C246.8,344.9,246.5,345.1,246.2,345.2z"/>
	<rect x="169" y="197.2" class="st14" width="74.1" height="107.6"/>
	<path class="st11" d="M225.9,178.4l-0.1-0.2L225.9,178.4z"/>
	<path class="st15" d="M284.7,89.7c-7.2-2.7-15.1-4.2-23.2-4.2c-36.3,0-65.8,29.5-65.8,65.8c0,36.3,29.5,65.8,65.8,65.8
		c8.2,0,16-1.5,23.2-4.2V89.7z"/>
	<g>
		<g>
			<path class="st4" d="M319.1,151.3h-57.6v57.6C293.3,208.9,319.1,183.1,319.1,151.3C319.1,151.3,319.1,151.3,319.1,151.3z"/>
			<path class="st5" d="M261.5,192.3c22.6,0,41-18.4,41-41h-41V192.3z"/>
			<path class="st6" d="M261.5,93.7v57.6l55.7,14.7c8.1-30.8-10.3-62.3-41-70.4C271.4,94.3,266.4,93.7,261.5,93.7z"/>
			<path class="st7" d="M301.2,161.6c5.7-21.9-7.5-44.3-29.4-50c-3.4-0.9-6.8-1.3-10.3-1.3v41L301.2,161.6z"/>
			<path class="st8" d="M277.9,96.1c-30.5-9.1-62.5,8.3-71.6,38.8c-1.6,5.3-2.4,10.9-2.4,16.4h57.6L277.9,96.1z"/>
			<path class="st9" d="M273.2,112c-21.7-6.5-44.5,5.9-51,27.6c-1.1,3.8-1.7,7.7-1.7,11.7h41L273.2,112z"/>
			<g>
				<path class="st10" d="M216.8,115c-20,24.7-16.2,61,8.5,81c10.3,8.3,23.1,12.9,36.3,12.9v-57.6L216.8,115z"/>
				<path class="st11" d="M229.6,125.5c-14.2,17.6-11.5,43.4,6.1,57.7c7.3,5.9,16.4,9.1,25.8,9.1v-41L229.6,125.5z"/>
			</g>
			<polygon class="st0" points="262.3,208.9 260.6,208.9 260.6,151.2 260.7,151.1 276.8,95.8 278.4,96.2 262.3,151.4 			"/>
			<polygon class="st0" points="316.9,166.8 261.1,152.1 261,151.9 216.2,115.7 217.3,114.4 261.9,150.5 317.3,165.2 			"/>
		</g>
		
			<ellipse transform="matrix(0.1602 -0.9871 0.9871 0.1602 70.2492 385.1681)" class="st0" cx="261.5" cy="151.3" rx="31.4" ry="31.4"/>
		<path class="st12" d="M248.3,148.9c0-4.4,2.6-6.1,6.3-6.1c4.5,0,6.4,3.8,6.4,9.1c0,7-2.5,9.9-6.8,9.9c-1.6,0.1-3.2-0.5-4.4-1.5
			c-0.3-0.3-0.4-0.9,0-1.2c0.2-0.2,0.4-0.3,0.6-0.3c0.2,0,0.4,0.1,0.6,0.2c0.9,0.7,2.1,1.1,3.2,1.1c3.8,0,5-3.4,5-7.7
			c-1.1,1.5-2.9,2.4-4.8,2.4C250.9,154.9,248.3,153,248.3,148.9z M250.1,148.9c0,3.1,1.9,4.4,4.4,4.4c2,0,3.8-1.2,4.7-3
			c0-3.4-1.5-5.9-4.5-5.9C252,144.4,250.1,145.6,250.1,148.9z"/>
		<path class="st12" d="M276.5,155.7c0,4.4-2.6,6.1-6.3,6.1c-4.5,0-6.4-3.8-6.4-9.1c0-7.1,2.5-10,6.8-10c1.6-0.1,3.2,0.5,4.4,1.5
			c0.2,0.2,0.3,0.4,0.3,0.6c0,0.5-0.4,0.8-0.9,0.8c-0.2,0-0.4-0.1-0.6-0.2c-0.9-0.7-2.1-1.1-3.2-1.1c-3.8,0-5,3.3-5,7.7
			c1.1-1.5,2.9-2.4,4.8-2.4C273.9,149.7,276.5,151.6,276.5,155.7z M274.7,155.7c0-3.1-1.9-4.4-4.4-4.4c-2,0-3.8,1.2-4.7,3
			c0,3.4,1.5,5.9,4.5,5.9C272.8,160.2,274.7,159.1,274.7,155.7z"/>
	</g>
</g>
<g class="st13">
	<path class="st0" d="M774.1,40.2c-4.5,0-8.2,3.7-8.2,8.2v337.1c0,4.5,3.7,8.2,8.2,8.2h265.1c4.5,0,8.2-3.7,8.2-8.2V48.5
		c0-4.5-3.7-8.2-8.2-8.2H774.1z"/>
	<path class="st1" d="M1039.2,395.4H774.1c-5.4,0-9.8-4.4-9.8-9.8V48.5c0-5.4,4.4-9.8,9.8-9.8h265.1c5.4,0,9.8,4.4,9.8,9.8v337.1
		C1049,391,1044.6,395.3,1039.2,395.4z M774.1,40.2c-4.5,0-8.2,3.7-8.2,8.2v337.1c0,4.5,3.7,8.2,8.2,8.2h265.1
		c4.5,0,8.2-3.7,8.2-8.2V48.5c0-4.5-3.7-8.2-8.2-8.2H774.1z"/>
	<path class="st1" d="M1033.8,71.5H775.1c-0.4,0-0.8-0.5-0.7-0.9c0-0.4,0.3-0.7,0.7-0.7h258.7c0.4,0,0.8,0.3,0.9,0.7
		c0,0.4-0.3,0.8-0.7,0.9C1033.9,71.5,1033.9,71.5,1033.8,71.5z"/>
	<path class="st1" d="M786.8,61.9c-3.4,0-6.2-2.8-6.2-6.2c0-3.4,2.8-6.2,6.2-6.2c3.4,0,6.2,2.8,6.2,6.2
		C793,59.1,790.2,61.9,786.8,61.9C786.8,61.9,786.8,61.9,786.8,61.9z M786.8,51.1c-2.5,0-4.6,2.1-4.6,4.6c0,2.5,2.1,4.6,4.6,4.6
		c2.5,0,4.6-2.1,4.6-4.6C791.4,53.1,789.3,51.1,786.8,51.1z"/>
	<path class="st1" d="M808.4,61.9c-3.4,0-6.2-2.8-6.2-6.2s2.8-6.2,6.2-6.2c3.4,0,6.2,2.8,6.2,6.2C814.6,59.1,811.8,61.9,808.4,61.9z
		 M808.4,51.1c-2.5,0-4.6,2.1-4.6,4.6s2.1,4.6,4.6,4.6c2.5,0,4.6-2.1,4.6-4.6c0,0,0,0,0,0C813,53.1,810.9,51.1,808.4,51.1z"/>
	<path class="st1" d="M830,61.9c-3.4,0-6.2-2.8-6.2-6.2s2.8-6.2,6.2-6.2c3.4,0,6.2,2.8,6.2,6.2C836.2,59.1,833.4,61.9,830,61.9z
		 M830,51.1c-2.5,0-4.6,2.1-4.6,4.6s2.1,4.6,4.6,4.6c2.5,0,4.6-2.1,4.6-4.6c0,0,0,0,0,0C834.6,53.1,832.5,51.1,830,51.1z"/>
	<g>
		<line class="st2" x1="800.8" y1="174.2" x2="947.5" y2="174.2"/>
		<path class="st1" d="M947.5,175H800.8c-0.4,0-0.8-0.5-0.7-0.9c0-0.4,0.3-0.7,0.7-0.7h146.7c0.4,0,0.8,0.3,0.9,0.7
			c0,0.4-0.3,0.8-0.7,0.9C947.6,175,947.5,175,947.5,175z"/>
	</g>
	<g>
		<line class="st2" x1="800.8" y1="195.4" x2="961.3" y2="195.4"/>
		<path class="st1" d="M961.3,196.3H800.8c-0.4,0-0.8-0.5-0.7-0.9c0-0.4,0.3-0.7,0.7-0.7h160.5c0.4,0,0.8,0.5,0.7,0.9
			C961.9,195.9,961.6,196.2,961.3,196.3z"/>
	</g>
	<g>
		<line class="st2" x1="800.8" y1="153" x2="947.5" y2="153"/>
		<path class="st1" d="M947.5,153.8H800.8c-0.4,0-0.8-0.5-0.7-0.9c0-0.4,0.3-0.7,0.7-0.7h146.7c0.4,0,0.8,0.3,0.9,0.7
			c0,0.4-0.3,0.8-0.7,0.9C947.6,153.8,947.5,153.8,947.5,153.8z"/>
	</g>
	<g>
		<line class="st2" x1="800.8" y1="132.9" x2="947.5" y2="132.9"/>
		<path class="st1" d="M947.5,133.7H800.8c-0.4,0-0.8-0.5-0.7-0.9c0-0.4,0.3-0.7,0.7-0.7h146.7c0.4,0,0.8,0.3,0.9,0.7
			c0,0.4-0.3,0.8-0.7,0.9C947.6,133.7,947.5,133.7,947.5,133.7z"/>
	</g>
	<g>
		<line class="st2" x1="800.8" y1="111.7" x2="947.5" y2="111.7"/>
		<path class="st1" d="M947.5,112.5H800.8c-0.4,0-0.8-0.5-0.7-0.9c0-0.4,0.3-0.7,0.7-0.7h146.7c0.4,0,0.8,0.3,0.9,0.7
			s-0.3,0.8-0.7,0.9C947.6,112.5,947.5,112.5,947.5,112.5z"/>
	</g>
	<g>
		<line class="st2" x1="800.8" y1="303" x2="1010.5" y2="303"/>
		<path class="st1" d="M1010.5,303.8H800.8c-0.4,0-0.8-0.4-0.8-0.8c0-0.4,0.4-0.8,0.8-0.8l0,0h209.7c0.4,0,0.8,0.4,0.8,0.8
			C1011.3,303.4,1010.9,303.8,1010.5,303.8z"/>
	</g>
	<g>
		<line class="st2" x1="800.8" y1="218.1" x2="983.8" y2="218.1"/>
		<path class="st1" d="M983.8,219h-183c-0.4,0-0.8-0.4-0.8-0.8s0.4-0.8,0.8-0.8l0,0h183c0.4,0,0.8,0.4,0.8,0.8S984.2,219,983.8,219z
			"/>
	</g>
	<g>
		<line class="st2" x1="800.8" y1="324.2" x2="964.5" y2="324.2"/>
		<path class="st1" d="M964.5,325H800.8c-0.4,0-0.8-0.5-0.7-0.9c0-0.4,0.3-0.7,0.7-0.7h163.8c0.4,0,0.8,0.5,0.7,0.9
			C965.2,324.7,964.9,325,964.5,325z"/>
	</g>
	<g>
		<line class="st2" x1="800.8" y1="344.4" x2="1010.5" y2="344.4"/>
		<path class="st1" d="M1010.5,345.2H800.8c-0.4,0-0.8-0.5-0.7-0.9c0-0.4,0.3-0.7,0.7-0.7h209.7c0.4,0,0.8,0.3,0.9,0.7
			c0,0.4-0.3,0.8-0.7,0.9C1010.6,345.2,1010.5,345.2,1010.5,345.2z"/>
	</g>
	<rect x="798.4" y="236.8" class="st14" width="212.1" height="49.1"/>
	<path class="st15" d="M1049,90.2c-7.2-2.7-15.1-4.2-23.2-4.2c-36.3,0-65.8,29.5-65.8,65.8c0,36.3,29.5,65.8,65.8,65.8
		c8.2,0,16-1.5,23.2-4.2V90.2z"/>
	<g>
		<g>
			<g>
				<path class="st10" d="M977.8,121.3c-7,11.2-9.9,24.5-8.3,37.6l0,0c4,31.6,32.7,54,64.3,50c0,0,0,0,0,0l-7.2-57.2L977.8,121.3z"
					/>
				<path class="st11" d="M1026.6,151.8l-34.8-21.6c-11.9,19.2-6,44.5,13.2,56.5c8,4.9,17.4,7,26.7,5.9L1026.6,151.8z"/>
			</g>
			<path class="st8" d="M1036.1,95c-31.4-5.2-61.1,16-66.3,47.4c-0.9,5.5-1,11.1-0.3,16.6l57.1-7.1L1036.1,95z"/>
			<path class="st9" d="M1033.4,111.3c-22.3-3.7-43.4,11.4-47.1,33.8c-0.6,3.9-0.7,7.9-0.2,11.8l40.7-5.1L1033.4,111.3z"/>
			<path class="st6" d="M1083.4,141.9c-5.4-31.3-35.3-52.3-66.6-46.9c-4.9,0.8-9.6,2.3-14.1,4.4l23.9,52.4L1083.4,141.9z"/>
			<path class="st7" d="M1009.6,114.4l17,37.3l40.4-7.1c-3.9-22.3-25.2-37.2-47.5-33.3C1016.1,112,1012.8,113,1009.6,114.4
				L1009.6,114.4z"/>
			<path class="st4" d="M1026.7,94.2v57.6l-30,49.1c27.1,16.6,62.6,8,79.2-19.1s8-62.6-19.1-79.2
				C1047.7,97.1,1037.3,94.2,1026.7,94.2z"/>
			<path class="st5" d="M1005.3,186.7c19.3,11.8,44.6,5.7,56.4-13.6s5.7-44.6-13.6-56.4c-6.4-3.9-13.8-6-21.3-6v41L1005.3,186.7z"/>
			<path class="st0" d="M969.6,159.8l-0.2-1.7l56.4-7.1V94.2h1.7v57.6c0,0.4-0.3,0.8-0.7,0.8L969.6,159.8z"/>
			<path class="st0" d="M997.3,201.4l-1.4-0.9l29.8-48.8l-23.8-52l1.5-0.7l23.9,52.4c0.1,0.3,0.1,0.6-0.1,0.8L997.3,201.4z"/>
		</g>
		
			<ellipse transform="matrix(0.2298 -0.9732 0.9732 0.2298 643.0642 1116.0865)" class="st0" cx="1026.7" cy="151.8" rx="31.4" ry="31.4"/>
		<path class="st12" d="M1025.5,155.7c0,4.4-2.6,6.1-6.3,6.1c-4.5,0-6.4-3.8-6.4-9.1c0-7.1,2.5-10,6.8-10c1.6-0.1,3.2,0.5,4.4,1.5
			c0.2,0.2,0.3,0.4,0.3,0.6c0,0.5-0.4,0.8-0.8,0.8c-0.2,0-0.4-0.1-0.6-0.2c-0.9-0.7-2.1-1.1-3.2-1.1c-3.8,0-5,3.3-5,7.7
			c1.1-1.5,2.9-2.4,4.8-2.4C1022.9,149.7,1025.5,151.6,1025.5,155.7z M1023.7,155.7c0-3.1-1.9-4.4-4.4-4.4c-2,0-3.8,1.2-4.7,3
			c0,3.4,1.5,5.9,4.5,5.9C1021.8,160.2,1023.7,159.1,1023.7,155.7L1023.7,155.7z"/>
		<path class="st12" d="M1039.7,155.6c0.5,0,0.8,0.3,0.9,0.8c0,0,0,0,0,0c0,0.5-0.4,0.9-0.8,0.9c0,0,0,0,0,0h-1.6v3.5
			c0,0.5-0.4,0.9-0.9,0.9s-0.9-0.4-0.9-0.9v-3.5h-7.9c-0.5,0-0.8-0.4-0.8-0.9c0-0.2,0.1-0.4,0.2-0.5l8.8-12.5
			c0.2-0.2,0.4-0.4,0.7-0.4c0.5,0,0.9,0.4,0.9,0.9v11.7L1039.7,155.6z M1036.3,155.6v-9.1l-6.4,9.1H1036.3z"/>
	</g>
</g>
</svg>
