<svg xmlns="http://www.w3.org/2000/svg" viewBox="15518.837 3378.132 362.903 362.869">
  <defs>
    <style>
      .cls-1 {
        fill: #35d888;
      }

      .cls-2 {
        fill: #00a596;
      }

      .cls-3 {
        fill: #4770b2;
      }

      .cls-4 {
        fill: #a8d1ff;
      }

      .cls-5 {
        fill: #ed8658;
      }

      .cls-6 {
        fill: #ffa785;
      }

      .cls-7 {
        fill: #a6b9f4;
      }

      .cls-8 {
        fill: #1d65d8;
      }

      .cls-9 {
        fill: #fff;
      }

      .cls-10 {
        fill: #929497;
      }
    </style>
  </defs>
  <g id="Group_2045" data-name="Group 2045" transform="translate(15160 -1000)">
    <g id="Group_1509" data-name="Group 1509" transform="translate(65.538 1549.841)">
      <g id="Group_1343" data-name="Group 1343" transform="translate(293.299 2828.29)">
        <g id="Group_1328" data-name="Group 1328" transform="translate(181.452 43.641)">
          <g id="Group_1327" data-name="Group 1327">
            <path id="Path_1504" data-name="Path 1504" class="cls-1" d="M259.26,144.851A180.769,180.769,0,0,0,196.619,25.7L78.8,163.51,97.459,343.97C197.152,333.574,269.655,244.544,259.26,144.851Z" transform="translate(-78.8 -25.7)"/>
          </g>
        </g>
        <g id="Group_1330" data-name="Group 1330" transform="translate(181.452 83.358)">
          <g id="Group_1329" data-name="Group 1329">
            <path id="Path_1505" data-name="Path 1505" class="cls-2" d="M207.281,125.365A128.164,128.164,0,0,0,162.766,40.6L78.8,138.693,92.128,267.174h0A129.413,129.413,0,0,0,207.281,125.365Z" transform="translate(-78.8 -40.6)"/>
          </g>
        </g>
        <g id="Group_1332" data-name="Group 1332" transform="translate(162.793 0.014)">
          <g id="Group_1331" data-name="Group 1331">
            <path id="Path_1506" data-name="Path 1506" class="cls-3" d="M208.278,52.96A180.694,180.694,0,0,0,71.8,10.311L90.459,190.77Z" transform="translate(-71.8 -9.333)"/>
          </g>
        </g>
        <g id="Group_1334" data-name="Group 1334" transform="translate(168.124 52.296)">
          <g id="Group_1333" data-name="Group 1333">
            <path id="Path_1507" data-name="Path 1507" class="cls-4" d="M87.128,158.1l83.966-98.093A129.149,129.149,0,0,0,73.8,29.621h0Z" transform="translate(-73.8 -28.947)"/>
          </g>
        </g>
        <g id="Group_1336" data-name="Group 1336">
          <g id="Group_1335" data-name="Group 1335">
            <path id="Path_1508" data-name="Path 1508" class="cls-5" d="M192.18,190.779,225.766,12.452a179.5,179.5,0,0,0-52.245-2.132h0c-99.693,10.4-172.2,99.426-161.8,199.119A180.792,180.792,0,0,0,63.965,318.993Z" transform="translate(-10.728 -9.328)"/>
          </g>
        </g>
        <g id="Group_1338" data-name="Group 1338" transform="translate(52.254 52.319)">
          <g id="Group_1337" data-name="Group 1337">
            <path id="Path_1509" data-name="Path 1509" class="cls-6" d="M183.519,31.206a133.649,133.649,0,0,0-37.318-1.6c-70.9,7.464-122.617,70.9-115.153,141.809A128.34,128.34,0,0,0,68.1,249.251l91.429-91.163Z" transform="translate(-30.331 -28.956)"/>
          </g>
        </g>
        <g id="Group_1340" data-name="Group 1340" transform="translate(21.25 181.451)">
          <g id="Group_1339" data-name="Group 1339">
            <path id="Path_1510" data-name="Path 1510" class="cls-7" d="M18.7,162.432A181.279,181.279,0,0,0,197.56,257.86L178.9,77.4Z" transform="translate(-18.7 -77.4)"/>
          </g>
        </g>
        <g id="Group_1342" data-name="Group 1342" transform="translate(67.365 181.451)">
          <g id="Group_1341" data-name="Group 1341">
            <path id="Path_1511" data-name="Path 1511" class="cls-8" d="M150.087,77.4,36,137.909a129.347,129.347,0,0,0,127.415,67.972Z" transform="translate(-36 -77.4)"/>
          </g>
        </g>
        <path id="Path_1512" data-name="Path 1512" class="cls-9" d="M96.459,369.72,77.8,188.994,112.186,10.4l5.065.8L83.131,188.994,101.79,369.187Z" transform="translate(100.986 -7.543)"/>
        <path id="Path_1513" data-name="Path 1513" class="cls-9" d="M20.5,252.107l-2.4-4.531,160.2-85.032L295.587,25l4.265,3.465L181.5,166.809l-.267.267Z" transform="translate(1.551 16.775)"/>
      </g>
      <circle id="Ellipse_68" data-name="Ellipse 68" class="cls-9" cx="75.969" cy="75.969" r="75.969" transform="translate(398.249 2930.041)"/>
      <circle id="Ellipse_69" data-name="Ellipse 69" class="cls-9" cx="98.893" cy="98.893" r="98.893" transform="translate(375.325 2907.117)"/>
      <g id="Group_1344" data-name="Group 1344" transform="translate(434.767 2978.021)">
        <path id="Path_1514" data-name="Path 1514" class="cls-10" d="M63.8,108.149c0-7.464,3.732-12.795,10.129-15.194-3.732-2.132-7.464-5.6-7.464-12.528,0-10.4,7.2-14.927,17.593-14.927s17.593,4.531,17.593,14.927c0,6.664-3.732,10.4-7.464,12.528,6.4,2.4,10.129,8,10.129,15.194,0,11.729-8.263,17.593-19.992,17.593C71.8,125.476,63.8,119.878,63.8,108.149Zm5.6,0c0,8.53,5.864,12.262,14.394,12.262s14.394-3.732,14.394-12.262S92.855,95.621,83.792,95.621,69.4,99.619,69.4,108.149Zm2.4-27.722c0,6.664,4.531,10.129,11.729,10.129s11.729-3.465,11.729-10.129-4.531-9.863-11.729-9.863S71.8,73.763,71.8,80.427Z" transform="translate(-63.8 -65.5)"/>
        <path id="Path_1515" data-name="Path 1515" class="cls-10" d="M101.825,88.991c13.861,0,18.126,8.8,18.126,18.393,0,11.2-6.664,17.593-19.725,17.593-9.063,0-15.194-4-18.392-9.6-.267-.533-.533-.8-.533-1.333a2.671,2.671,0,0,1,2.666-2.666,2.821,2.821,0,0,1,2.4,1.333c2.666,4.265,6.931,7.2,13.861,7.2,9.6,0,14.128-4.531,14.128-12.528,0-7.73-3.2-13.328-13.061-13.328H95.428a2.671,2.671,0,0,1-2.666-2.666,2.42,2.42,0,0,1,.8-1.866l15.727-18.393H87.164a2.666,2.666,0,1,1,0-5.331h27.989a2.671,2.671,0,0,1,2.666,2.666,2.879,2.879,0,0,1-.8,1.866L101.025,88.724h.8Z" transform="translate(-34.652 -65)"/>
      </g>
    </g>
  </g>
</svg>
