<?xml version="1.0" encoding="utf-8"?>
<!-- Generator: Adobe Illustrator 22.0.1, SVG Export Plug-In . SVG Version: 6.00 Build 0)  -->
<svg version="1.1" id="Layer_1" xmlns="http://www.w3.org/2000/svg" xmlns:xlink="http://www.w3.org/1999/xlink" x="0px" y="0px"
	 viewBox="0 0 883.4 471.6" style="enable-background:new 0 0 883.4 471.6;" xml:space="preserve">
<style type="text/css">
	.st0{fill:#FFFFFF;}
	.st1{fill:none;stroke:#4770B2;stroke-width:7;stroke-linecap:round;}
	.st2{fill:#A8D1FF;}
	.st3{fill:#FAAF70;}
	.st4{fill:#35D888;}
	.st5{fill:#A6B9F4;}
	.st6{fill:#0A1D2C;}
	.st7{fill:none;}
	.st8{fill:#010202;}
	.st9{fill:#020202;}
</style>
<g>
	<path class="st0" d="M862,395.8L862,395.8l-74.4-10.1c-12.5-1.7-22.1-11.7-23.4-24.2l-2.3-23.1c0.1-0.4,0.3-0.8,0.6-1.1l51.3-29.9
		c0.3-0.3,0.8-0.3,1.1,0s0.6,0.6,0.6,0.8c0,0.3-0.8,23.4-9.6,43.4c-1.2,2.6-1.1,5.6,0.3,8.2c1.4,2.5,3.7,4.3,6.5,5.1
		c31.6,6.8,49.9,17.5,50.2,17.5c0.3,0.3,0.6,0.6,0.6,0.8v11c0,0.3-0.1,0.6-0.3,0.8C862.6,395.8,862.3,395.8,862,395.8z"/>
	<path id="Path_1742_1_" class="st0" d="M735.1,270.2h-0.3l-11.3-3.7c-0.3,0-0.5-0.3-0.6-0.6v-0.8l32.4-45.9
		c0.2-0.2,0.5-0.3,0.8-0.3l0,0c0.3,0,0.6,0.3,0.8,0.3l8.2,11.8c0.2,0.2,0.3,0.4,0.3,0.6l1.4,15.5c0,0.3-0.1,0.6-0.3,0.8l-30.7,22.3
		C735.4,270,735.1,270.2,735.1,270.2z"/>
	<path class="st0" d="M534.2,426.8H190.3c-4.4,0-7.9-3.5-7.9-7.9l0,0V18.9c0-4.4,3.5-7.9,7.9-7.9l0,0h343.9c4.4,0,7.9,3.5,7.9,7.9
		l0,0V419C542,423.2,538.6,426.7,534.2,426.8z"/>
	<g id="Group_2042" transform="translate(15089 -1290)">
		<line id="Line_213" class="st1" x1="-15077" y1="1757.4" x2="-14230" y2="1757.4"/>
		<g id="Group_1512" transform="translate(150.1 1296.131)">
			<path id="Path_1656" class="st2" d="M-14847.3,244.9l-178.4-0.6v-12.4h178.4V244.9z"/>
			<path id="Path_1657" class="st3" d="M-14760.5,216.4l-171.7-0.3v-12.7h171.7V216.4z"/>
			<path id="Path_1658" class="st2" d="M-14872.7,301.5l-59.5-0.6v-12.4h59.5V301.5z"/>
			<path id="Path_1659" class="st4" d="M-14872.7,159.5l-59.5-0.3v-12.7h59.5V159.5z"/>
			<path id="Path_1660" class="st3" d="M-14876.1,187.9l-126.8-0.3V175h126.8V187.9z"/>
			<path id="Path_1661" class="st3" d="M-14967.4,358.5l-35.5-0.3v-12.4h35.5V358.5z"/>
			<path id="Path_1662" class="st3" d="M-14783.6,74.1l-63.4-0.3V61.4h63.4V74.1z"/>
			<path id="Path_1663" class="st5" d="M-14899.8,74.1l-126-0.3V61.4h126.8L-14899.8,74.1z"/>
			<path id="Path_1664" class="st6" d="M-14704.4,420.7h-344.4c-4.4,0-7.9-3.5-7.9-7.9l0,0v-401c0-4.4,3.5-7.9,7.9-7.9l0,0h344.4
				c4.4,0,7.9,3.5,7.9,7.9l0,0v401.1C-14696.6,417.2-14700.1,420.7-14704.4,420.7z M-15048.9,5.6c-3.4,0-6.2,2.8-6.2,6.2v401.1
				c0,3.4,2.8,6.2,6.2,6.2h344.4c3.4,0,6.2-2.8,6.2-6.2V11.8c0-3.4-2.8-6.2-6.2-6.2L-15048.9,5.6L-15048.9,5.6z"/>
			<g id="Group_1512-2" transform="translate(151.643 24.522)">
				<line id="Line_196" class="st7" x1="-15199.7" y1="4.7" x2="-14860.3" y2="4.7"/>
				<path id="Path_1665" class="st6" d="M-14860.3,5.6h-339.4c-0.4,0.1-0.8-0.2-0.8-0.6c0-0.1,0-0.1,0-0.2c-0.1-0.4,0.2-0.8,0.6-0.8
					c0.1,0,0.1,0,0.2,0h339.4c0.4-0.1,0.8,0.2,0.8,0.6c0,0.1,0,0.1,0,0.2c0.1,0.4-0.2,0.8-0.6,0.8
					C-14860.1,5.6-14860.2,5.6-14860.3,5.6z"/>
			</g>
			<path id="Path_1666" class="st6" d="M-14743.6,182.3h-279c-0.3,0-0.6-0.2-0.6-0.5s0.2-0.6,0.5-0.6l0,0h279c0.3,0,0.6,0.3,0.5,0.6
				C-14743.1,182-14743.3,182.3-14743.6,182.3z"/>
			<path id="Path_1667" class="st6" d="M-14741.3,68.4h-281.3c-0.3,0-0.6-0.3-0.5-0.6c0-0.3,0.2-0.5,0.5-0.5h281.3
				c0.3,0,0.6,0.3,0.5,0.6C-14740.8,68.2-14741.1,68.4-14741.3,68.4L-14741.3,68.4z"/>
			<path id="Path_1668" class="st6" d="M-14763.9,210.8h-258.8c-0.3,0-0.6-0.2-0.6-0.5s0.2-0.6,0.5-0.6l0,0h258.8
				c0.3,0,0.6,0.3,0.5,0.6C-14763.4,210.5-14763.6,210.7-14763.9,210.8z"/>
			<path id="Path_1669" class="st6" d="M-14853,239.2h-169.7c-0.3,0-0.5-0.3-0.6-0.6c0-0.3,0.3-0.8,0.6-0.8h169.7
				c0.3,0,0.5,0.3,0.6,0.6C-14852.4,238.7-14852.7,239.2-14853,239.2z"/>
			<path id="Path_1670" class="st6" d="M-14761.1,267.7h-263.3c-0.3,0-0.6-0.2-0.6-0.5s0.2-0.6,0.5-0.6l0,0h263
				c0.3,0,0.5,0.3,0.6,0.6C-14760.8,267.4-14760.8,267.7-14761.1,267.7z"/>
			<path id="Path_1671" class="st6" d="M-14804.5,295.9h-219.9c-0.3,0-0.6-0.2-0.6-0.5s0.2-0.6,0.5-0.6l0,0h219.9
				c0.3,0,0.5,0.3,0.6,0.6C-14803.9,295.6-14803.9,295.9-14804.5,295.9z"/>
			<path id="Path_1672" class="st6" d="M-14761.1,96.9h-263.3c-0.3,0-0.6-0.3-0.5-0.6c0-0.3,0.2-0.5,0.5-0.5h263
				c0.3,0,0.5,0.3,0.6,0.6C-14760.8,96.6-14760.8,96.9-14761.1,96.9z"/>
			<path id="Path_1673" class="st6" d="M-14735.7,125.4h-288.6c-0.3,0-0.6-0.3-0.5-0.6c0-0.3,0.2-0.5,0.5-0.5h288.6
				c0.3,0,0.6,0.3,0.5,0.6C-14735.2,125.1-14735.4,125.3-14735.7,125.4z"/>
			<path id="Path_1674" class="st6" d="M-14804.2,153.8h-220.1c-0.3,0-0.6-0.2-0.6-0.5s0.2-0.6,0.5-0.6l0,0h220.1
				c0.3,0,0.5,0.3,0.6,0.6C-14803.6,153.5-14803.6,153.8-14804.2,153.8z"/>
			<g id="Group_1513" transform="translate(156.716 9.302)">
				<circle id="Ellipse_79" class="st0" cx="-15195.7" cy="8.7" r="4.2"/>
				<path id="Path_1675" class="st6" d="M-15195.7,13.5c-2.6-0.1-4.7-2.2-4.8-4.8c0-2.6,2.2-4.8,4.9-4.7c2.6,0,4.7,2.1,4.7,4.7
					C-15190.9,11.3-15193,13.4-15195.7,13.5L-15195.7,13.5z M-15195.7,5c-2,0-3.6,1.7-3.7,3.7c0,2,1.6,3.7,3.7,3.7s3.7-1.6,3.7-3.7
					c0.1-2-1.5-3.6-3.4-3.7C-15195.6,5-15195.6,5-15195.7,5z"/>
			</g>
			<g id="Group_1514" transform="translate(173.628 9.302)">
				<circle id="Ellipse_80" class="st0" cx="-15195.7" cy="8.7" r="4.2"/>
				<path id="Path_1676" class="st6" d="M-15195.7,13.5c-2.6-0.1-4.7-2.2-4.8-4.8c0.1-2.6,2.2-4.7,4.8-4.8c2.8,0.3,4.8,2.3,4.8,4.8
					C-15190.9,11.3-15193,13.4-15195.7,13.5L-15195.7,13.5z M-15195.7,5c-2,0-3.6,1.7-3.7,3.7c0,2,1.6,3.7,3.7,3.7s3.7-1.6,3.7-3.7
					c0.1-2-1.5-3.6-3.4-3.7C-15195.6,5-15195.6,5-15195.7,5z"/>
			</g>
			<g id="Group_1515" transform="translate(190.822 9.302)">
				<circle id="Ellipse_81" class="st0" cx="-15195.7" cy="8.7" r="4.2"/>
				<path id="Path_1677" class="st6" d="M-15195.7,13.5c-2.6-0.1-4.7-2.2-4.8-4.8c0.1-2.6,2.2-4.7,4.8-4.8c2.6,0.1,4.6,2.2,4.5,4.8
					C-15191.1,11.2-15193.2,13.3-15195.7,13.5z M-15195.7,5c-2.1-0.1-3.9,1.6-3.9,3.6l0,0c0,2,1.6,3.7,3.7,3.7s3.7-1.6,3.7-3.7
					C-15192.2,6.7-15193.7,5.1-15195.7,5L-15195.7,5z"/>
			</g>
			<path id="Path_1678" class="st6" d="M-14761.1,324.3h-263.3c-0.3,0-0.6-0.2-0.6-0.5s0.2-0.6,0.5-0.6l0,0h263
				c0.3,0,0.5,0.3,0.6,0.6S-14760.8,324.3-14761.1,324.3z"/>
			<path id="Path_1679" class="st6" d="M-14735.7,352.8h-288.6c-0.3,0-0.6-0.2-0.6-0.5s0.2-0.6,0.5-0.6l0,0h288.6
				c0.3,0,0.6,0.2,0.6,0.5C-14735.1,352.5-14735.3,352.8-14735.7,352.8L-14735.7,352.8z"/>
			<path id="Path_1680" class="st6" d="M-14804.2,381.3h-220.1c-0.3,0-0.6-0.2-0.6-0.5s0.2-0.6,0.5-0.6l0,0h220.1
				c0.3,0,0.5,0.3,0.6,0.6C-14803.6,381-14803.6,381.3-14804.2,381.3z"/>
			<g id="Group_1516" transform="translate(63.733 441.025)">
				<path id="Path_1681" class="st6" d="M-15194.6,4c0,0,3.4-1.1,11.3,4.5c2.5,1.7,8.2,5.1,12.7,4.8c0,0.3,6.2-0.8,4.8,4.5
					c0,0.3-33.3,0-33.3,0s-3.1-4.2,0-13.8C-15199.1,4.2-15194.6,4-15194.6,4z"/>
			</g>
			<g id="Group_1517" transform="translate(1.159 441.025)">
				<path id="Path_1682" class="st6" d="M-15194.6,4c0,0,3.4-1.1,11.3,4.5c2.5,1.7,8.2,5.1,12.7,4.8c0,0.3,6.2-0.8,4.8,4.5
					c0,0.3-33.3,0-33.3,0s-3.1-4.2,0-13.8C-15199.4,4.2-15194.6,4-15194.6,4z"/>
			</g>
			<g id="Group_1518" transform="translate(68.211 134.449)">
				<path id="Path_1683" class="st0" d="M-15196.6,8.9c0,0,2.8,25.4-2.8,41.7c2.5,2.3,11.8,12.1,14.7-0.8
					c2.8-12.7-3.4-45.4-3.4-45.4L-15196.6,8.9z"/>
				<path id="Path_1684" class="st6" d="M-15190.1,57.4c-3.4,0-7-3.4-9.3-5.4c-0.3-0.3-0.6-0.6-0.8-0.6c-0.2-0.2-0.3-0.5-0.3-0.8
					c5.4-15.8,2.8-41.2,2.8-41.4s0.3-0.8,0.6-0.8l8.7-4.5h0.8c0.3,0,0.5,0.3,0.6,0.6c0.3,1.4,6.2,33,3.4,45.9
					c-0.8,3.9-2.5,6.2-4.8,7H-15190.1z M-15198.2,50.7l0.3,0.3c2,1.7,5.9,5.6,9,4.5c1.7-0.6,2.8-2.3,3.4-5.6c2.5-11-2-37.8-3.1-44
					l-7,3.7C-15195.4,13.7-15193.5,35.4-15198.2,50.7z"/>
			</g>
			<g id="Group_1526" transform="translate(63.419 55.809)">
				<g id="Group_1519" transform="translate(0 5.637)">
					
						<rect id="Rectangle_143" x="-15198.9" y="40.6" transform="matrix(0.925 -0.38 0.38 0.925 -1156.1392 -5733.2075)" class="st0" width="198.2" height="42.3"/>
					<path id="Path_1685" class="st6" d="M-15183.6,119.7c-0.3,0-0.6-0.3-0.8-0.6l-16.1-38.9v-0.6c0-0.3,0.3-0.3,0.6-0.6l183.5-75.3
						h0.6c0.3,0,0.3,0.3,0.6,0.6l16.1,38.9c0.3,0.6,0,1.1-0.6,1.1l-183.5,75.3L-15183.6,119.7L-15183.6,119.7z M-15198.2,80.3
						l15.2,37.2l181.8-74.7l-15.2-37.2L-15198.2,80.3z"/>
				</g>
				<g id="Group_1520" transform="translate(6.654 81.066)">
					<line id="Line_197" class="st7" x1="-15199.5" y1="4.8" x2="-15185.7" y2="38.4"/>
					<path id="Path_1686" class="st6" d="M-15185.7,39.2c-0.3,0-0.6-0.3-0.8-0.6l-13.8-33.5c-0.3-0.6,0-1.1,0.6-1.1
						c0.6-0.3,1.1,0,1.1,0.6l13.8,33.3c0.3,0.6,0,1.1-0.6,1.1C-15185.5,39.1-15185.6,39.2-15185.7,39.2L-15185.7,39.2z"/>
				</g>
				<g id="Group_1525" transform="translate(183.493)">
					<g id="Group_1521" transform="translate(40.87)">
						<path id="Path_1687" class="st5" d="M-15187.5,18.2l1.1-13l-12.7,5.4l4.2,10.4L-15187.5,18.2z"/>
						<path id="Path_1688" class="st8" d="M-15195.4,22.2l-5.1-12.1l14.9-6.2l-1.1,14.7L-15195.4,22.2z M-15198,11.2l3.7,8.7
							l5.9-2.5l0.8-10.7L-15198,11.2z"/>
					</g>
					<g id="Group_1523" transform="translate(0 4.792)">
						<g id="Group_1522">
							<path id="Path_1689" class="st0" d="M-15195.7,15.1l12.1,29.3l23.7-22l-5.1-12.7l-0.8-2l-1.4-3.4l-32.4,1.1l2.8,6.5
								L-15195.7,15.1z"/>
							<path id="Path_1690" class="st6" d="M-15183.6,45.3L-15183.6,45.3c-0.6,0-0.8-0.3-0.8-0.6l-12.1-29.3l0,0l-3.9-9.6V5
								c0.2-0.2,0.5-0.3,0.8-0.3l32.4-0.8c0.3,0,0.8,0.3,0.8,0.6l7.3,18c0.3,0.3,0,0.8-0.3,1.1l-23.7,22
								C-15183.3,45.3-15183.3,45.3-15183.6,45.3z M-15194.9,14.6l11.6,28.2l22.3-20.6l-6.8-16.6l-30.4,0.8L-15194.9,14.6z"/>
						</g>
					</g>
					<g id="Group_1524" transform="translate(32.696 1.862)">
						
							<rect id="Rectangle_144" x="-15195.7" y="5.2" transform="matrix(0.9303 -0.3667 0.3667 0.9303 -1063.7903 -5570.0376)" class="st0" width="7.6" height="19.2"/>
						<path id="Path_1691" class="st6" d="M-15192.6,26.2h-0.3c-0.3,0-0.3-0.3-0.6-0.6l-7-17.8V7.2l0.6-0.6l7-2.8
							c0.6-0.3,1.1,0,1.1,0.6l7,17.8c0.3,0.6,0,1.1-0.6,1.1l-7,2.8L-15192.6,26.2z M-15198.5,7.9l6.5,16.1l5.4-2.3l-6.5-16.1
							L-15198.5,7.9z"/>
					</g>
				</g>
			</g>
			<g id="Group_1528" transform="translate(62.856 432.943)">
				<g id="Group_1527">
					<path id="Path_1692" class="st0" d="M-15199.7,5l1.7,9l0,0c2.2,1.1,4.8,1.2,7,0.3l0.3-0.3l1.4-8.7h-10.4V5z"/>
					<path id="Path_1693" class="st6" d="M-15194,15.4c-1.5,0-2.9-0.3-4.2-0.8c-0.3,0-0.5-0.3-0.6-0.6l-1.7-9
						c-0.1-0.5,0.3-1.1,0.9-1.1c0.1,0,0.2,0,0.3,0h10.7c0.3,0,0.6,0,0.6,0.3c0.2,0.2,0.3,0.5,0.3,0.8l-1.4,8.7
						c0,0.3-0.3,0.6-0.6,0.8l-0.3,0.3C-15191.4,15.2-15192.7,15.4-15194,15.4z M-15197.1,13.2c1.9,0.8,4,0.8,5.9,0l1.1-7.3h-8.5
						L-15197.1,13.2z"/>
				</g>
			</g>
			<g id="Group_1530" transform="translate(2.255 432.943)">
				<g id="Group_1529">
					<path id="Path_1694" class="st0" d="M-15198.5,5l-1.1,9l0,0c2.2,1.1,4.8,1.2,7,0.3l0.3-0.3l4.2-8.7h-10.4V5z"/>
					<path id="Path_1695" class="st6" d="M-15195.7,15.4c-1.5,0-2.9-0.3-4.2-0.8c-0.3-0.3-0.6-0.6-0.6-0.8l1.1-9
						c0-0.5,0.4-0.8,0.8-0.8h10.7c0.3,0,0.6,0.3,0.8,0.6c0.2,0.2,0.3,0.5,0.1,0.7l-0.1,0.1l-4.2,8.7c0,0.3-0.3,0.3-0.6,0.6l-0.3,0.3
						C-15193.2,15.2-15194.5,15.4-15195.7,15.4z M-15198.5,13.2c1.9,0.6,4,0.6,5.9,0l0,0l3.4-7.3h-8.5L-15198.5,13.2z"/>
				</g>
			</g>
			<g id="Group_1531" transform="translate(0 271.153)">
				<path id="Path_1696" class="st0" d="M-15175.4,4.7c1,17,3.2,34,6.5,50.7c1.6,7.8,1,15.9-1.7,23.4
					c-11.8,35.5-28.8,89.1-28.8,89.1h14.9c0,0,33.8-63.1,42.6-94.7c8.7-31.3,10.1-41.4,10.1-41.4l-10.4-27.3h-33.3v0.2H-15175.4z"/>
				<path id="Path_1697" class="st6" d="M-15184.4,169.3h-14.9c-0.3,0-0.6-0.3-0.8-0.6c-0.2-0.2-0.3-0.5-0.3-0.8
					c0.3-0.6,16.9-53.8,28.8-89.1c2.6-7.3,3.1-15.2,1.4-22.8c-3.3-16.8-5.5-33.9-6.5-51c-0.1-0.5,0.3-1.1,0.9-1.1c0.1,0,0.2,0,0.3,0
					h33.3c0.4,0,0.9,0.2,1.1,0.6l10.4,27.3v0.6c0,0.3-1.7,10.4-10.1,41.4c-8.7,31-42.3,94.1-42.6,94.7S-15184.2,169.3-15184.4,169.3
					z M-15198,167.1h13c3.4-6.2,34.1-64.5,42.3-93.9c7.9-28.2,9.9-39.2,10.1-40.9l-10.1-26.5h-31.6c1,16.7,3.1,33.2,6.2,49.6
					c1.7,8,1.1,16.3-1.7,24C-15180.5,111.5-15195.4,158.6-15198,167.1z"/>
			</g>
			<g id="Group_1534" transform="translate(75.54 110.38)">
				<g id="Group_1532">
					<path id="Path_1698" class="st0" d="M-15167.8,29.6c0-1.4,0-3.1-0.3-2.5c3.7-13.5,0.6-18.9,0.3-18.6c-1.1-1-2.5-1.4-3.9-1.1
						c-4.5-3.1-6.8-1.7-7-1.7c-2.8-2.3-4.2,1.1-4.2,1.4c-1.7,8.5,4.8,17.2,4.8,17.2c-1.4,15.2-2.8,45.4-2.8,45.4
						c-6.1,2-12.5,3.3-18.9,3.9l6.5,25.9c0,0,20-6.5,26.2-14.9c1.4-1.7,2-5.1,2-9.6C-15163.9,64.3-15166.7,37.8-15167.8,29.6z"/>
					<path id="Path_1699" class="st6" d="M-15192.9,100.1h-0.6c-0.3,0-0.3-0.3-0.6-0.6l-6.5-25.9c0-0.3,0.1-0.6,0.3-0.8
						c0.3-0.3,0.3-0.3,0.6-0.3c6.1-0.6,12.2-1.8,18-3.7c0.3-4.5,1.4-30.7,2.5-44.5c-1.1-1.7-6.5-9.6-4.8-17.5
						c0.4-1.3,1.3-2.3,2.5-2.8c1-0.2,2,0,2.8,0.6c2-0.6,4.2,0,6.8,1.7c1.5-0.2,3.1,0.3,4.2,1.4l0,0c1.1,0.8,3.1,7,0,19.2
						c0.3,0.8,0.4,1.7,0.3,2.5c0.8,7.9,3.7,34.7,3.1,45.4c0,4.8-0.8,8.2-2.3,9.9C-15172.3,93.6-15191.8,99.8-15192.9,100.1
						L-15192.9,100.1z M-15198.2,74.2l5.9,24c3.9-1.4,19.7-7,25.1-14.4c1.1-1.4,1.7-4.5,1.7-9c0.6-10.4-2.3-37.2-3.1-45.1l0,0V28
						c-0.2-0.3-0.3-0.7-0.3-1.1c3.4-12.1,1.1-16.9,0.8-17.8l0,0c-0.8-0.6-1.8-1-2.8-1.1h-0.8c-2.5-1.7-4.5-2.3-5.9-1.7h-0.6
						c-0.3,0-0.3,0-0.3-0.3c-0.4-0.4-0.9-0.6-1.4-0.6c-0.6,0-0.8,0.6-1.4,1.4c-1.7,7.6,4.8,16.1,4.8,16.1c0,0.3,0.3,0.3,0.3,0.6
						c-1.4,14.9-2.5,45.1-2.5,45.4s-0.3,0.6-0.6,0.8C-15185.4,72.1-15191.8,73.6-15198.2,74.2z"/>
				</g>
				<g id="Group_1533" transform="translate(16.912 1.973)">
					<path id="Path_1700" class="st0" d="M-15199.7,4.8"/>
					<path id="Path_1701" class="st6" d="M-15199.7,6L-15199.7,6c-0.6-0.3-0.8-0.6-0.8-1.1l0,0V4.6c0-0.6,0.6-0.8,1.1-0.6
						c0.6,0,0.8,0.6,0.6,1.1v0.3C-15198.8,5.7-15199.4,6-15199.7,6z M-15200.2,4.8L-15200.2,4.8z"/>
				</g>
			</g>
			<g id="Group_1535" transform="translate(23.958 178.138)">
				<path id="Path_1702" class="st0" d="M-15150.6,97.7h-48.8V35.4c0-13.7,10.3-25.1,24-26.5l33.8-4.2c0,0,3.9,6.2,14.9,20.3
					c-13,8.5-28.5,12.1-28.5,12.1L-15150.6,97.7z"/>
				<path id="Path_1703" class="st6" d="M-15150.6,98.9h-48.8c-0.6,0-1.1-0.5-1.1-1.1V35.4c-0.1-14.3,10.8-26.3,25.1-27.3l33.8-4.2
					c0.5-0.1,0.9,0.2,1.1,0.6c0,0,4.2,6.2,14.9,20.3c0.2,0.2,0.3,0.5,0.3,0.8c0,0.3-0.3,0.6-0.6,0.8c-8.8,5.2-18.3,9.2-28.2,11.8
					l4.5,59.8c0,0.3-0.1,0.6-0.3,0.8L-15150.6,98.9z M-15198.2,96.9h46.5l-4.5-59.8c0-0.6,0.3-0.8,0.8-1.1
					c9.6-2.5,18.8-6.3,27.3-11.3c-8.7-11-13-17.2-14.1-18.9l-33.3,3.9c-13.2,1.1-23.2,12.2-23.1,25.4v61.7L-15198.2,96.9
					L-15198.2,96.9z"/>
			</g>
			<g id="Group_1536" transform="translate(23.958 271.435)">
				<path id="Path_1704" class="st0" d="M-15199.4,4.4c0,0,6.8,24.8,32.1,52.7c6.7,6.7,10.2,15.9,9.6,25.4l-5.4,85.1h15.2
					c0,0,18.6-70.7,14.4-105.4c-3.9-35-17.5-57.8-17.5-57.8S-15199.4,4.4-15199.4,4.4z"/>
				<path id="Path_1705" class="st6" d="M-15147.8,169h-15.2c-0.5,0.1-1.1-0.3-1.1-0.9c0-0.1,0-0.2,0-0.3l5.4-85.1
					c0.6-9.1-2.8-18.1-9.3-24.5c-25.4-27.9-32.4-53-32.4-53.3c-0.1-0.5,0.3-1.1,0.9-1.1c0.1,0,0.2,0,0.3,0h48.8
					c0.3,0,0.8,0.3,0.8,0.6s13.5,23.4,17.5,58.1s-14.4,105.1-14.4,106C-15146.9,168.5-15147.2,169-15147.8,169z M-15161.9,166.8
					h13.2c2-7.9,18-72.2,14.4-104.3c-3.7-31.3-14.9-53.3-16.9-56.9h-46.8c2,5.6,10.1,27.3,31.6,51c6.9,6.9,10.5,16.5,9.9,26.2
					L-15161.9,166.8z"/>
			</g>
			<g id="Group_1537" transform="translate(550.576 114.155)">
				<path id="Path_1706" class="st0" d="M-15133.5,58.3c-3.4,0.6-7.3,1.1-11.6,1.4c-5.2,0.3-10.4-0.1-15.5-1.1
					c-3-3.3-5.7-6.9-7.9-10.7c-3.3-5.4-5.8-11.3-7.3-17.5c0-2,0.3-10.7-6.2-18c-3.2-3.7-7.4-6.3-12.1-7.6
					c-3.7,10.4-8.7,30.7-2.3,54.1c3.4,11.8,8.5,30.4,25.7,39.5c11.8,5.9,30.4,7.9,42.8-2.5c1.4-1.2,2.7-2.6,3.9-3.9
					C-15137.2,86.5-15140.3,69.3-15133.5,58.3z"/>
				<path id="Path_1707" class="st6" d="M-15150.1,103.9c-7.3,0-14.6-1.7-21.1-5.1c-17.8-9-22.8-27.6-26.2-39.7
					c-5.9-22-2-42,2.3-54.7c0-0.3,0.6-0.6,0.8-0.6c4.9,1.3,9.3,4.1,12.7,7.9c6.2,7,6.5,15.2,6.5,18.6c1.5,6.1,3.8,11.9,7,17.2
					c2.2,3.6,4.8,7,7.6,10.1c5,0.8,10.1,1.1,15.2,0.8c3.8-0.1,7.6-0.5,11.3-1.4c0.3,0,0.6,0.1,0.8,0.3s0.3,0.5,0.1,0.7l-0.1,0.1
					c-3.5,6.1-4.2,13.4-2,20c1.7,5.6,5.8,10.1,11.3,12.1c0.3,0,0.3,0.3,0.6,0.6c0.3,0.3,0,0.6-0.3,0.6c-2,2.5-3.9,3.9-3.9,4.2
					C-15133.8,101.7-15142,103.9-15150.1,103.9z M-15193.8,5.6c-4.2,12.7-7.9,31.9-2,53c3.4,12.1,8.2,30.2,25.4,38.9
					c11.8,5.9,29.9,7.6,42-2.5c0.3,0,1.4-1.1,3.1-3.1c-5.4-2.5-9.5-7.1-11.3-12.7c-2.2-6.5-1.7-13.6,1.4-19.7
					c-3.4,0.6-6.8,0.8-10.1,1.1c-5.3,0.2-10.6-0.2-15.8-1.1c-0.3,0-0.3,0-0.6-0.3c-3-3.3-5.7-6.9-7.9-10.7
					c-3.4-5.5-5.8-11.5-7.3-17.8v-0.3c0-3.1-0.3-11-6.2-17.8C-15186.2,8.7-15190.7,6.7-15193.8,5.6z"/>
			</g>
			<g id="Group_1538" transform="translate(472.404 100.594)">
				<path id="XMLID_6_" class="st0" d="M-15097.6,106.5c0-28.5-3.7-57-11-84.6c-3.5-4-7.6-7.4-12.1-10.1
					c-28.2-16.6-63.1,1.1-68.2,3.7c-5.6,19.3-9,39.1-10.1,59.2c-1.1,17.3-0.5,34.7,1.7,51.9h99.2
					C-15097.9,119.7-15097.6,113.3-15097.6,106.5z"/>
				<path id="Path_1708" class="st6" d="M-15098.2,126.8h-99.2c-0.3,0-0.8-0.3-0.8-0.6c-2.3-17.2-2.8-34.6-1.7-51.9
					c1.2-20,4.7-39.9,10.1-59.2c0-0.3,0.3-0.3,0.3-0.6c6.8-3.4,41.2-20,68.8-3.7c4.6,2.8,8.8,6.4,12.4,10.4c0,0.2,0.1,0.3,0.3,0.3
					l0,0c7.3,27.7,11,56.2,11,84.8c0,6.5-0.3,13-0.6,19.7C-15097.6,126.5-15097.9,126.8-15098.2,126.8z M-15196.8,125.4h97.8
					c0.3-6.5,0.6-12.7,0.6-18.9l0,0c-0.1-28.4-3.7-56.7-10.7-84.3c-3.4-3.9-7.4-7.2-11.8-9.9c-26.5-15.8-59.8-0.3-67.1,3.4
					c-5.3,19.2-8.7,38.8-10.1,58.6C-15199.3,91.4-15198.9,108.5-15196.8,125.4z"/>
			</g>
			<g id="Group_1539" transform="translate(437.537 110.929)">
				<path id="XMLID_5_" class="st0" d="M-15159.7,100.7c8.7-22.8-3.4-30.2,4.5-55.2c2-6.8,5.1-13,5.1-23.1
					c0.1-6.1-1.1-12.1-3.4-17.8c-21.4,14.9-29.6,33-34.4,43.7c-9.9,21.7-16.3,53.8-8.7,67.6h28.5
					C-15163.7,111.1-15161.1,104.9-15159.7,100.7z"/>
				<path id="Path_1709" class="st6" d="M-15167.9,116.5h-28.5c-0.2,0-0.4-0.1-0.6-0.3c-7.9-13.8-1.7-45.7,8.5-68.2v-0.3
					c4.8-10.7,13-28.8,34.4-43.7c0.3,0,0.6-0.3,0.6,0c0.3,0,0.3,0.3,0.6,0.6c2.3,5.7,3.4,11.9,3.4,18c0,8.5-2,14.1-3.7,19.4
					c-0.5,1.3-0.9,2.6-1.1,3.9c-3.9,12.4-2.8,20.3-2,27.9c0.8,8.2,2,15.8-2.5,27.3l0,0c-1.4,3.9-3.9,10.4-8.5,15.2L-15167.9,116.5z
					 M-15195.8,115h27.6c3.4-4.4,6.1-9.4,7.9-14.7l0,0c4.2-11.3,3.4-18.9,2.5-26.8c-0.8-7.9-2-16.1,2-28.5c0.3-1.4,0.8-2.7,1.4-3.9
					c2.4-6.1,3.7-12.6,3.7-19.2c0-5.7-1-11.3-3.1-16.6c-20.6,14.7-28.5,32.1-33.3,42.6v0.3C-15196.9,70.8-15203.1,101.5-15195.8,115
					L-15195.8,115z"/>
			</g>
			<path id="XMLID_4_" class="st6" d="M-14659,120.6c2.3-3.7,4.5-7.3,7-11c-3.7-2.3-7.3-4.5-11-7c-2,0.7-4.1,1.1-6.2,1.1
				c-2.6,0-5.1-0.7-7.3-2l-12.7,4.2c3.7,3.9,10.1,10.7,13.8,14.7c3.7-1.7,4.5-6.2,8.2-7.9C-14664.4,115.2-14661.6,117.8-14659,120.6
				z"/>
			<g id="Group_1540" transform="translate(520.602 78.922)">
				<path id="XMLID_3_" class="st0" d="M-15180.8,5.3v21.4c-2.5,2-4.8,4.2-7.3,6.2c-3.9-2.3-8.2-4.5-12.1-7l0.8-18.6
					C-15193.2,6.7-15187,5.8-15180.8,5.3z"/>
				<path id="Path_1710" class="st6" d="M-15187.8,33.5h-0.3l-12.1-7c-0.3-0.3-0.3-0.3-0.3-0.8l0.8-18.6c0-0.3,0.3-0.6,0.6-0.8
					l18.6-2.3c0.3,0,0.6,0,0.6,0.3c0.3,0.3,0.3,0.3,0.3,0.6v21.4c0,0.3,0,0.6-0.3,0.6l-7.3,6.2
					C-15187.5,33.5-15187.5,33.5-15187.8,33.5z M-15199.1,25.6l11.3,6.5l6.5-5.6v-20l-17.2,2L-15199.1,25.6z"/>
			</g>
			<g id="Group_1541" transform="translate(511.74 50.975)">
				<path id="Path_1711" class="st0" d="M-15166.3,22.2c-0.6-0.8-1.4-1.5-2.3-2c-0.6-5.4-2.8-10.1-7-13c-2.7-1.9-6-2.9-9.3-2.8
					c-4.1,0.4-7.9,2.6-10.4,5.9c-3.2,4.3-4.3,9.7-3.1,14.9c-0.3,0.4-0.6,0.9-0.8,1.4c-1.4,3.1,1.1,7.6,3.4,7.6
					c0.3,0,0.6-0.1,0.8-0.3c0.6,1.1,1.4,2,2.3,2.8c2.3,2.5,5.2,4.2,8.5,5.1c2.5,0,4.8-0.3,7.3-0.3c2.9-2.3,5.2-5.3,6.8-8.7
					c0.3-0.8,0.6-1.4,0.8-2.3c0.5,0,1-0.1,1.4-0.3C-15165.4,29.6-15164.3,25.1-15166.3,22.2z"/>
				<path id="Path_1712" class="st6" d="M-15184.3,42.8L-15184.3,42.8c-3.4-1-6.5-2.8-9-5.4c-0.7-0.8-1.4-1.6-2-2.5h-0.6
					c-1.1,0-2.3-0.8-3.4-2.3c-1.3-1.8-1.6-4.1-0.8-6.2c0.2-0.4,0.5-0.8,0.8-1.1c-0.8-5.6,0.3-11.3,3.4-15.2c1.4-1.7,5.1-5.9,11-6.2
					c3.6-0.2,7.1,0.9,9.9,3.1c3.9,2.8,6.5,7.6,7.3,13.2c0.9,0.5,1.6,1.2,2.3,2l0,0c1.2,1.9,1.4,4.2,0.6,6.2
					c-0.4,1.4-1.4,2.6-2.8,3.1c-0.3,0-0.6,0.3-1.1,0.3c-0.3,0.5-0.5,1.1-0.6,1.7c-1.6,3.5-4,6.6-7,9c-0.2,0.2-0.4,0.3-0.6,0.3
					H-15184.3z M-15195,33.2c0.3,0,0.6,0,0.6,0.3c0.6,1.1,1.4,2,2.3,2.8c2.2,2.3,4.9,3.9,7.9,4.8l6.8-0.3c2.8-2.2,5.1-5.1,6.5-8.5
					c0.3-0.7,0.6-1.5,0.8-2.3c0-0.3,0.6-0.6,0.8-0.6h1.1c0.8-0.3,1.4-1.1,2-2.3c0.5-1.6,0.3-3.4-0.6-4.8c-0.6-0.6-1.3-1.2-2-1.7
					c-0.3,0-0.3-0.3-0.6-0.6c-0.4-5-2.9-9.6-6.8-12.7c-2.5-1.9-5.6-2.9-8.7-2.8c-5.1,0.3-8.5,3.9-9.9,5.6c-2.8,3.7-3.9,9-3.1,14.4
					c0,0.3,0,0.6-0.3,0.6c-0.3,0.3-0.6,0.7-0.8,1.1c-0.8,1.7,0,3.7,0.6,4.8c0.3,0.8,1.1,1.4,2,1.4c0.2,0,0.4-0.1,0.6-0.3
					C-15195.3,33.2-15195,33.2-15195,33.2L-15195,33.2z"/>
			</g>
			<path id="XMLID_2_" class="st6" d="M-14668.9,90.4c-2.8,0-5.6,2-5.4,3.4c0.3,1.1,3.4,2,5.6,1.7s5.1-1.1,5.1-2.5
				C-14663.5,91.8-14666.4,90.4-14668.9,90.4z"/>
			<path id="Path_1713" class="st6" d="M-14673.1,75.5c-0.3,0-0.6-0.3-0.5-0.6c0-0.3,0.2-0.5,0.5-0.5l3.9-0.3c0.3,0,0.6,0.3,0.5,0.6
				c0,0.3-0.2,0.5-0.5,0.5L-14673.1,75.5z"/>
			<path id="XMLID_1_" class="st6" d="M-14662.4,56c-1.1-2.5-2-4.5-3.9-6.2c-6.5-5.4-20-0.6-19.7,1.4c0,0.6,0.8,1.1,4.2,1.7
				c-1.4,0.4-2.7,1.2-3.7,2.3c-1.4,1.4-2.3,3.9-1.4,4.5c0.6,0.6,2.5-1.1,3.7-1.7c-2.1,1.1-3.4,3.3-3.4,5.6c0.1,1.8,1,3.5,2.5,4.5
				c0.6-0.8,3.7-5.9,9.9-7.3c8.2-1.7,14.4,4.5,14.7,4.8C-14660.2,63.6-14660.4,60-14662.4,56z"/>
			<g id="Group_1542" transform="translate(532.159 115.564)">
				<path id="Path_1714" class="st0" d="M-15199.7,4.2c0,0,11.6,43.4,2.8,100.9"/>
				<path id="Path_1715" class="st6" d="M-15196.8,105.9L-15196.8,105.9c-0.5,0-0.8-0.4-0.8-0.8c8.5-56.7-2.5-100.1-2.8-100.3
					c0-0.3,0-0.8,0.6-0.8c0.3,0,0.8,0,0.8,0.6s11.3,44.3,2.8,101.2C-15196.4,105.8-15196.6,105.9-15196.8,105.9z"/>
			</g>
			<g id="Group_1543" transform="translate(503.691 148.824)">
				<path id="Path_1716" class="st0" d="M-15199.7,4.7l21.4,2l-0.3,6.2"/>
				<path id="Path_1717" class="st6" d="M-15178.5,13.7L-15178.5,13.7c-0.4,0.1-0.8-0.2-0.8-0.6c0-0.1,0-0.1,0-0.2l0.3-5.6
					l-20.6-1.7c-0.5,0-0.9-0.3-0.9-0.8s0.3-0.9,0.8-0.9c0,0,0,0,0.1,0l21.4,1.7c0.5,0,0.8,0.4,0.8,0.8l-0.3,6.5
					C-15178,13.5-15178.2,13.7-15178.5,13.7z"/>
			</g>
			<g id="Group_1544" transform="translate(545.97 148.824)">
				<path id="Path_1718" class="st0" d="M-15178.5,4.7l-21.4,2l0.6,6.2"/>
				<path id="Path_1719" class="st6" d="M-15199.4,13.7c-0.5,0-0.8-0.4-0.8-0.8l-0.3-6.5c0-0.5,0.4-0.8,0.8-0.8l21.4-1.7
					c0.5,0,0.8,0.4,0.8,0.9c0,0.4-0.4,0.8-0.8,0.8l-20.6,1.7l0.3,5.6C-15198.8,13.5-15199.1,13.7-15199.4,13.7z"/>
			</g>
			<path id="Path_1720" class="st6" d="M-14659.9,81.7c-1.1-1.8-2.7-3.2-4.5-4.2c-8.7-5.1-14.7,1.7-14.7,1.7c-0.8,1.1-1.5,2.4-2,3.7
				c-1,2.5-1.5,5.2-1.4,7.9c2.3-0.1,4.5-0.8,6.5-2c2.7-1.9,4.6-4.7,5.4-7.9c0.7,2.3,2,4.2,3.9,5.6c2.7,1.8,6.1,2.1,9,0.8
				C-14657.8,85.2-14658.6,83.3-14659.9,81.7z"/>
			<g id="Group_1545" transform="translate(627.327 155.941)">
				<path id="Path_1721" class="st0" d="M-15199,4.9c-0.9,0.9-1.2,2.2-0.8,3.4c0.3,1.1,1.1,2.3,0.8,3.4c0,0.6-0.3,0.8-0.3,1.4
					c0,0.6,0.6,0.8,0.8,1.4c0.6,1.1-0.6,2.5-0.3,3.7c0.4,0.9,1.3,1.5,2.3,1.4c0.9-0.2,1.7-0.4,2.5-0.8c0.8-0.6,1.4-1.1,2.3-1.7"/>
				<path id="Path_1722" class="st6" d="M-15196.7,19.9c-1.2,0.1-2.3-0.8-2.5-2c-0.2-0.7-0.1-1.4,0.3-2c0.3-0.5,0.3-1.2,0-1.7
					c0-0.3-0.3-0.3-0.3-0.6c-0.3-0.3-0.6-0.7-0.6-1.1c0-0.6,0-0.8,0.3-1.1v-0.3c0.3-0.6,0-1.1-0.3-2c-0.3-0.3-0.3-0.8-0.6-1.4
					c-0.4-1.3,0.1-2.8,1.1-3.7c0.3-0.3,0.6-0.3,0.6,0c0.3,0.3,0.3,0.6,0,0.6c-0.9,0.7-1.2,1.8-0.8,2.8c0,0.3,0.3,0.8,0.3,1.1
					c0.3,0.8,0.5,1.7,0.6,2.5c0,0.3,0,0.3-0.3,0.6c0,0.2-0.1,0.4-0.3,0.6c0,0.3,0.3,0.3,0.3,0.6s0.3,0.3,0.3,0.6
					c0.1,0.7,0.1,1.5,0,2.3c-0.2,0.4-0.3,0.9-0.3,1.4c0.3,0.7,1,1.1,1.7,1.1l0,0c0.8-0.1,1.6-0.4,2.3-0.8c0.8-0.6,1.4-1.1,2.3-1.7
					c0.3-0.3,0.6-0.3,0.6,0c0.3,0.3,0.3,0.6,0,0.6c-0.8,0.6-1.4,1.1-2.3,1.7c0,1.1-0.9,2-2,2
					C-15196.6,19.9-15196.7,19.9-15196.7,19.9L-15196.7,19.9z"/>
			</g>
			<g id="Group_1552" transform="translate(578.666 71.875)">
				<g id="Group_1546" transform="translate(0 43.564)">
					<path id="Path_1723" class="st0" d="M-15155.7,102.6l23.4-87.1l-40.9-10.7l-26.2,97.8
						C-15199.4,102.6-15155.7,102.6-15155.7,102.6z"/>
					<path id="Path_1724" class="st6" d="M-15155.7,103.5h-43.7c-0.5,0.1-1.1-0.3-1.1-0.9c0-0.1,0-0.2,0-0.3l26.2-97.8
						c0-0.3,0.3-0.5,0.6-0.6c0.3,0,0.6-0.3,0.6,0l40.9,11c0.6,0,0.8,0.6,0.6,1.1l-23.1,87.1
						C-15155.1,103.4-15155.4,103.5-15155.7,103.5z M-15198,101.8h41.7l22.8-85.4l-38.9-10.4L-15198,101.8z"/>
				</g>
				<g id="Group_1551" transform="translate(26.495)">
					<g id="Group_1547" transform="translate(23.958)">
						<path id="Path_1725" class="st2" d="M-15197.4,7.5l12.4-2.5l-3.7,13.2l-11-3.1L-15197.4,7.5z"/>
						<path id="Path_1726" class="st9" d="M-15187.8,19.4l-12.7-3.4l2.5-9l14.4-3.1L-15187.8,19.4z M-15198.5,14.6l9.3,2.5l2.8-11
							l-10.4,2.3L-15198.5,14.6z"/>
					</g>
					<g id="Group_1549" transform="translate(0 17.077)">
						<g id="Group_1548">
							<path id="Path_1727" class="st0" d="M-15168.9,39.5l-30.7-8.2l18.9-26.5l13.2,3.7l2,0.3l3.4,1.1l3.1,32.1l-6.8-1.7
								L-15168.9,39.5z"/>
							<path id="Path_1728" class="st6" d="M-15159.1,42.9L-15159.1,42.9l-10.1-2.5l0,0l-30.7-8.2c-0.3,0-0.5-0.3-0.6-0.6v-0.8
								l18.9-26.5c0.3-0.3,0.6-0.6,0.8-0.3l18.6,5.1c0.3,0,0.6,0.3,0.6,0.8l3.1,32.4c0,0.3-0.1,0.6-0.3,0.8
								C-15158.5,42.9-15158.8,42.9-15159.1,42.9z M-15168.6,38.7l8.7,2.3l-3.1-30.4l-17.5-4.5l-17.8,24.8L-15168.6,38.7z"/>
						</g>
					</g>
					<g id="Group_1550" transform="translate(18.774 9.74)">
						
							<rect id="Rectangle_145" x="-15193.1" y="0.9" transform="matrix(0.2442 -0.9697 0.9697 0.2442 -11490.2129 -14721.498)" class="st0" width="7.6" height="19.2"/>
						<path id="Path_1729" class="st6" d="M-15180.9,17.8L-15180.9,17.8l-18.9-4.8c-0.6,0-0.8-0.6-0.6-1.1l2-7.3
							c0-0.2,0.1-0.4,0.3-0.6c0.3,0,0.6-0.3,0.6,0l18.6,4.8c0.6,0,0.8,0.6,0.6,1.1l-2,7.3c0,0.2-0.1,0.4-0.3,0.6H-15180.9z
							 M-15198.4,11.6l16.9,4.2l1.4-5.6L-15197,6L-15198.4,11.6z"/>
					</g>
				</g>
			</g>
			<g id="Group_1553" transform="translate(610.517 171.373)">
				<path id="Path_1730" class="st0" d="M-15174.3,18.8c-0.8,1.1-1.7,2-2.3,2.8c-4.6,0-9.2-0.4-13.8-1.1c-2.5,0-7.9-0.8-8.2-1.7
					c2.6-1.4,5.3-2.5,8.2-3.1l-0.3-0.3c-2.8,0-9-0.8-9.3-1.4c1.4-2.3,8.5-4.2,8.5-4.2c-2.8-0.3-6.2-1.1-6.5-1.7
					c3.9-2.2,8.2-3.6,12.7-4.2h4.5c1.9,0.1,3.7,0.7,5.1,2C-15175.1,5.8-15169.5,11.2-15174.3,18.8"/>
				<path id="Path_1731" class="st6" d="M-15176.5,22.5L-15176.5,22.5c-4.8-0.3-9.6-0.6-13.8-1.1l0,0c-1.4,0-7.9-0.6-8.5-2
					c0-0.3,0.1-0.6,0.3-0.8c1.5-0.9,3.1-1.7,4.8-2.3c-2.8-0.3-6.2-0.8-6.8-1.7V14c0.8-1.4,3.7-2.5,5.9-3.4c-1.7-0.3-3.7-0.8-3.9-1.7
					c0-0.3,0.1-0.6,0.3-0.8c3.9-2.4,8.4-3.9,13-4.2h4.8c2,0.1,4,0.8,5.6,2c3.6,3.7,4.2,9.4,1.4,13.8l0,0c-0.8,1-1.6,2-2.3,3.1
					C-15176.3,22.2-15176.3,22.5-15176.5,22.5z M-15190.4,19.6c4.4,0.7,8.8,1,13.2,1.1c0.6-0.8,1.4-1.7,2-2.5
					c4.5-7-0.8-11.6-1.1-11.8c-1.4-1.1-3-1.7-4.8-1.7h-4.2c-3.9,0.5-7.7,1.6-11.3,3.4c1.7,0.4,3.4,0.7,5.1,0.8
					c0.3,0,0.5,0.3,0.6,0.6c0,0.3-0.3,0.6-0.6,0.8c-1.7,0.6-5.6,1.7-7.6,3.1c2.6,0.7,5.2,1,7.9,0.8h0.3l0.3,0.3
					c0.3,0,0.3,0.3,0.3,0.8c0,0.3-0.3,0.5-0.6,0.6c-2.3,0.6-4.6,1.4-6.8,2.5C-15195.3,19.3-15192.8,19.6-15190.4,19.6L-15190.4,19.6
					z"/>
			</g>
			<g id="Group_1554" transform="translate(345.847 185.748)">
				<path id="Path_1732" class="st0" d="M-14903.4,210.2h-290.3c-3.2,0.1-5.8-2.4-5.9-5.6c0-0.1,0-0.2,0-0.3V10.6
					c-0.1-3.2,2.4-5.8,5.6-5.9c0.1,0,0.2,0,0.3,0h290c3.2-0.1,5.8,2.4,5.9,5.6c0,0.1,0,0.2,0,0.3v193.6
					C-14897.7,207.4-14900.2,210-14903.4,210.2C-14903.3,210.2-14903.4,210.2-14903.4,210.2z"/>
				<path id="Path_1733" class="st6" d="M-14903.4,210.8h-290.3c-3.7-0.1-6.7-3-6.8-6.8V10.6c0.1-3.7,3-6.7,6.8-6.8h290
					c3.7,0.1,6.7,3,6.8,6.8v193.6c0.1,3.5-2.8,6.4-6.3,6.5C-14903.3,210.8-14903.3,210.8-14903.4,210.8z M-15193.7,5.6
					c-2.8,0-5.1,2.2-5.1,5l0,0v193.6c0,2.8,2.2,5.1,5,5.1l0,0h290c2.8,0,5.1-2.2,5.1-5l0,0V10.6c0-2.8-2.2-5.1-5-5.1l0,0
					L-15193.7,5.6z"/>
			</g>
			<g id="Group_1555" transform="translate(352.612 206.606)">
				<line id="Line_198" class="st7" x1="-15199.7" y1="4.4" x2="-14913.8" y2="4.4"/>
				<path id="Path_1734" class="st6" d="M-14913.8,5.6h-285.8c-0.5,0-0.8-0.4-0.8-0.9c0-0.4,0.4-0.8,0.8-0.8h285.8
					c0.5,0,0.8,0.4,0.8,0.9C-14913,5.2-14913.4,5.5-14913.8,5.6L-14913.8,5.6z"/>
			</g>
			<g id="Group_1559" transform="translate(463.102 177.9)">
				<path id="Path_1738" class="st0" d="M-15180.5,12.6c0.8,2,1.4,3.9,2.3,5.9c0.8,3.7,4.8,3.7,4.8,3.7s-0.3-3.7,0-3.9
					c1.4,4.8,7,3.7,7,3.7s-1.7-3.4-1.7-3.7c1.4,2.3,5.4,2,5.6,1.7c-0.6-3.1-5.6-10.4-5.6-10.4c-1.7-2.5-4.4-4.2-7.3-4.8
					c-0.3,0-0.6-0.3-1.1-0.3c0,0-10.7-2-22.8,7.9c0-0.3,5.9,0,6.5,0L-15180.5,12.6z"/>
				<path id="Path_1739" class="st6" d="M-15167.8,22.7c-1.9,0-3.7-0.7-5.1-2v1.1c0,0.3,0,0.3-0.3,0.6c-0.3,0.3-0.3,0.3-0.6,0.3
					c-2.6,0.1-5-1.7-5.6-4.2l-2-5.4h-18c-0.3,0.3-0.6,0-0.8,0c-0.2-0.2-0.3-0.5-0.3-0.8c0-0.2,0.1-0.3,0.3-0.3l0,0
					c11-8.7,21.1-8.5,23.4-7.9l0,0c0.4,0,0.8,0.1,1.1,0.3c3.2,0.6,6,2.4,7.9,5.1c0.3,0.3,5.4,7.3,5.9,10.7c0,0.3-0.1,0.6-0.3,0.8
					c-0.3,0.3-2.5,0.3-4.2-0.3c0.3,0.3,0.3,0.8,0.6,1.1v0.8c0,0.3-0.3,0.3-0.6,0.3C-15166.8,22.8-15167.3,22.7-15167.8,22.7z
					 M-15173.7,17.4L-15173.7,17.4c0.6,0,0.6,0.3,0.8,0.6c0.8,2.8,3.4,3.4,5.1,3.4c-1.4-2.5-1.4-3.1-1.4-3.1c0-0.3,0.3-0.5,0.6-0.6
					c0.3,0,0.6,0.1,0.8,0.3c0.8,1.4,2.8,1.7,3.9,1.7l0,0c-0.8-2.8-4.2-7.6-5.4-9.3c-1.7-2.2-4.1-3.8-6.8-4.5c-0.3,0-0.6-0.3-0.8-0.3
					l0,0c-0.3,0-9.3-1.4-20.3,6.2h16.3c0.3,0,0.6,0.3,0.8,0.6l2.3,5.9c0.4,1.6,1.7,2.9,3.4,3.1c0-3.1,0-3.4,0.3-3.7L-15173.7,17.4z"
					/>
			</g>
			<path id="Path_1740" class="st6" d="M-14464,152.7c-5.6-10.7-20.9-11.3-29.9-3.9c-4.5,3.7-6.5,9.3-7.3,14.9
				c-0.3,2.8-1.7,9.9-2.8,18.3c2.4-0.7,4.8-1.1,7.3-1.1c4,0,8,0.9,11.6,2.8c-3.4-13-13-27.3-7.3-27.6c9.9-0.3,16.9,11.3,16.9,11.3
				l-0.6,25.9c1.7,3.4,2.5,7.2,2.5,11l11.6-11.6C-14462.3,193-14456.7,170.2-14464,152.7z"/>
			<path id="Path_1741" class="st6" d="M-14496.7,151.8c-6.3,8.3-9.3,18.6-8.5,29c0.4,2.5,0.7,5.1,0.8,7.6c0-0.3-0.3,13-3.1,15.8
				c0,0,3.1,2.8,10.7,0c3.9-1.1,4.8-5.1,10.7-4.2c3.1,0.6,9.9-1.1,11.8-6.2c0.3-0.3,10.1-5.1,10.1-5.1l-5.1-28.2l-15.8-4.5
				L-14496.7,151.8z"/>
			<path id="Path_1742" class="st6" d="M-14506.6,266h-0.3l-11.3-3.7c-0.3,0-0.5-0.3-0.6-0.6v-0.8l32.4-45.9
				c0.2-0.2,0.5-0.3,0.8-0.3l0,0c0.3,0,0.6,0.3,0.8,0.3l8.2,11.8c0.2,0.2,0.3,0.4,0.3,0.6l1.4,15.5c0,0.3-0.1,0.6-0.3,0.8
				l-30.7,22.3C-14506.3,265.7-14506.6,266-14506.6,266z M-14516.4,260.6l9.6,3.4l29.9-21.7l-1.4-14.7l-7.3-10.7L-14516.4,260.6z"/>
			<g id="Group_1560" transform="translate(713.664 188.244)">
				<path id="Path_1743" class="st0" d="M-15192.3,5c-14.7,10.4-3.1,100.6-3.1,100.6l58.3-11.3C-15137.1,94.4-15141.6,2.8-15192.3,5
					z"/>
				<path id="Path_1744" class="st6" d="M-15195.4,106.5c-0.3,0-0.3,0-0.6-0.3s-0.3-0.3-0.3-0.6c-0.6-3.7-11.3-90.8,3.7-101.5
					c0.3,0,0.3-0.3,0.6-0.3c51-2.3,56.1,89.1,56.1,90.2c0.1,0.4-0.2,0.8-0.6,0.8c-0.1,0-0.1,0-0.2,0L-15195.4,106.5L-15195.4,106.5z
					 M-15191.7,5.9c-13,10.1-3.9,88.8-2.8,98.7l56.7-11C-15138.5,84.5-15145.5,4.5-15191.7,5.9z"/>
			</g>
			<path id="Path_1745" class="st6" d="M-14372.1,387.2c0,0,5.1,5.6,8.2,18c0.6,2.8-0.3,5.6,4.2,5.6v-15.2l-2.3-12.7h2.3v-6.8
				c0,0-11.3-2-12.7,2C-14372.1,382.1-14372.1,387.2-14372.1,387.2z"/>
			<g id="Group_1561" transform="translate(823.324 373.751)">
				<path id="Path_1746" class="st0" d="M-15200.2,12.9l5.4,1.1l0,0c1.6-2.2,1.7-5.3,0.3-7.6l-0.3-0.6l-5.4-1.7V12.9z"/>
				<path id="Path_1747" class="st6" d="M-15194.9,14.6L-15194.9,14.6l-5.4-1.1c-0.3,0-0.3-0.3-0.3-0.6V4.2c0-0.3,0-0.3,0.3-0.3h0.6
					l5.4,1.7c0.2,0,0.3,0.1,0.3,0.3l0,0l0.3,0.6c1.5,2.6,1.4,5.7-0.3,8.2L-15194.9,14.6z M-15199.7,12.6l4.8,1.1
					c1.4-2,1.4-4.7,0-6.8l-0.3-0.3l-4.5-1.4V12.6z"/>
			</g>
			<path id="Path_1748" class="st6" d="M-14466.5,441.6c0,0,0,8.5-17.2,13.8c-3.4,1.1-2.3,2-3.1,3.7h19.7l7.6-8.7l2.5,2l5.6-5.4
				c0,0-2.5-7.9-6.8-7.9C-14461.5,439.9-14466.5,441.6-14466.5,441.6z"/>
			<g id="Group_1562" transform="translate(730.591 427.024)">
				<path id="Path_1749" class="st0" d="M-15200.2,7.3l3.1,7.3l0,0c2.9,0.9,6.1-0.1,7.9-2.5l0.3-0.3l-2.5-7.6L-15200.2,7.3z"/>
				<path id="Path_1750" class="st6" d="M-15194.9,15.4c-0.8,0-1.5,0-2.3-0.3c-0.3,0-0.3,0-0.3-0.3l-3.1-7.3V7.2l0.3-0.3l9-3.1h0.3
					l0.3,0.3l2.5,7.6v0.6l-0.3,0.3C-15190.1,14.3-15192.4,15.3-15194.9,15.4z M-15196.6,14.3c2.7,0.6,5.4-0.3,7.3-2.3l0.3-0.3
					l-2.3-6.8l-7.9,2.8L-15196.6,14.3z"/>
			</g>
			<path id="Path_1751" class="st6" d="M-14376.9,389.7L-14376.9,389.7l-74.4-10.1c-12.5-1.7-22.1-11.7-23.4-24.2l-2.3-23.1
				c0.1-0.4,0.3-0.8,0.6-1.1l51.3-29.9c0.3-0.3,0.8-0.3,1.1,0s0.6,0.6,0.6,0.8c0,0.3-0.8,23.4-9.6,43.4c-1.2,2.6-1.1,5.6,0.3,8.2
				c1.4,2.5,3.7,4.3,6.5,5.1c31.6,6.8,49.9,17.5,50.2,17.5c0.3,0.3,0.6,0.6,0.6,0.8v11c0,0.3-0.1,0.6-0.3,0.8
				C-14376.3,389.7-14376.6,389.7-14376.9,389.7z M-14474.7,333.1l2.3,22.3c1.2,11.5,10,20.6,21.4,22.3l73,9.9v-9
				c-3.1-1.7-20.6-11-49-16.9c-3.4-0.8-6.5-2.8-7.9-5.9c-1.6-3.2-1.7-6.9-0.3-10.1c7.3-16.3,9-35,9.3-40.9L-14474.7,333.1z"/>
			<g id="Group_1563" transform="translate(695.922 293.984)">
				<path id="Path_1752" class="st0" d="M-15174,5.3c0,0-25.7,48.2-25.7,63.1s34.7,73.3,34.7,73.3h9.9c0,0-1.7-36.9-8.5-67.6
					c-1.4-6.1,0.6-12.4,5.1-16.6c21.1-19.7,39.7-52.1,39.7-52.1L-15174,5.3L-15174,5.3z"/>
				<path id="Path_1753" class="st6" d="M-15155.1,142.5h-9.9c-0.3,0-0.8-0.3-0.8-0.6c-1.4-2.3-34.7-58.6-34.7-73.8
					c0-14.9,24.8-61.7,25.9-63.7c0.3-0.3,0.6-0.6,0.8-0.6h55c0.3,0,0.8,0.3,0.8,0.6c0.3,0.3,0.3,0.8,0,1.1
					c-0.3,0.3-18.9,33-39.7,52.4c-4.2,4-6,9.9-4.8,15.5c6.8,30.4,8.5,67.4,8.5,67.6c0,0.3-0.1,0.6-0.3,0.8
					C-15154.6,142.5-15154.8,142.5-15155.1,142.5z M-15164.4,140.6h8.2c-0.3-6.5-2.5-38.9-8.5-66.2c-1.5-6.4,0.6-13,5.4-17.5
					c18-16.9,34.4-43.7,38.6-50.5h-52.4c-2.8,5.4-25.4,48.5-25.4,62C-15198.5,82.2-15167.8,134.7-15164.4,140.6L-15164.4,140.6z"/>
			</g>
			<g id="Group_1564" transform="translate(717.343 176.894)">
				<path id="Path_1754" class="st0" d="M-15199.7,10.2V24c3.8-0.1,7.5-1.5,10.4-3.9c0.3,0,4.8-9.9,4.8-9.9l-11-5.4L-15199.7,10.2z"
					/>
				<path id="Path_1755" class="st6" d="M-15199.7,24.8c-0.4,0.1-0.8-0.2-0.8-0.6c0-0.1,0-0.1,0-0.2V10.2c0-0.3,0-0.3,0.3-0.6
					l4.2-5.4c0.3-0.3,0.8-0.6,1.1-0.3l11,5.4c0.4,0.2,0.6,0.7,0.6,1.1c-3.4,7.6-4.2,9.6-4.8,10.1l0,0
					C-15191.4,23.2-15195.4,24.7-15199.7,24.8z M-15198.8,10.5v12.4c1.7-0.3,5.9-0.8,9-3.7l0,0c0.6-0.8,2.3-4.8,3.9-8.7l-9.6-4.8
					L-15198.8,10.5z"/>
			</g>
			<g id="Group_1565" transform="translate(699.586 148.542)">
				<path id="Path_1756" class="st0" d="M-15189.8,4.7l12.4,5.6l3.4,15.5c0.9,4.1-0.3,8.4-3.1,11.6c-3.1,2.8-6.9,4.7-11,5.4
					c-1.6,0.4-3.3,0.3-4.8-0.3c-2.5-2.8-3.9-7.9-4.5-13c-0.8-0.3-2.5-0.6-2.3-0.8c0.3-4.5,0.8-8.9,1.7-13.2l0,0
					C-15198,15.4-15196.3,7.5-15189.8,4.7z"/>
				<path id="Path_1757" class="st6" d="M-15190.1,43.9c-1.1,0-2.1-0.2-3.1-0.6l-0.3-0.3c-2.3-2.5-3.9-6.8-4.8-13
					c-1.7-0.6-2-0.6-2.3-1.1v-0.6l0,0c0.3-4.5,0.8-8.9,1.7-13.2c0-0.3,1.7-8.5,8.7-11.3h0.8l12.4,5.6c0.3,0,0.5,0.3,0.6,0.6
					l3.4,15.5c0.9,4.4-0.3,9-3.4,12.4c-3.2,3-7.2,5-11.6,5.6C-15188.5,43.8-15189.3,43.9-15190.1,43.9z M-15192.3,41.6
					c1.3,0.5,2.6,0.6,3.9,0.3c4-0.6,7.7-2.3,10.7-5.1c2.6-2.9,3.6-6.9,2.8-10.7l-3.4-15.2l-11.6-5.4c-5.9,2.8-7.3,9.9-7.3,9.9
					c-0.9,4.1-1.4,8.2-1.7,12.4c0.6,0.1,1.1,0.2,1.7,0.3c0.3,0,0.6,0.3,0.6,0.8C-15195.7,35.2-15194.3,39.4-15192.3,41.6z"/>
			</g>
			<path id="Path_1758" class="st6" d="M-14494.7,155.5c-0.8,7.3,19.2,12.1,19.2,12.1l3.1-9.6l-10.4-9l-10.4,3.7
				C-14493.3,153-14494.7,154.4-14494.7,155.5z"/>
			<path id="Path_1759" class="st0" d="M-14472.7,167.6c-1.6-0.8-3.5-0.3-4.5,1.1c-1.1,1.7-1.1,3.4,0,4.5c1.6,0.8,3.5,0.3,4.5-1.1
				C-14471.6,170.5-14471.6,168.5-14472.7,167.6z"/>
			<path id="Path_1760" class="st6" d="M-14457.8,198.6c1.7-5.9,0.8-8.5,0-10.1c-3.4-4.2-1.4-12.4-1.7-14.7
				c-0.3-18.9-7.3-24.5-7.3-24.5l1.7,20l-9.3,5.1c1.4,5.1-5.9,26.5-2.8,26.5C-14477,200.9-14467.1,193.3-14457.8,198.6"/>
			<g id="Group_1566" transform="translate(601.387 230.846)">
				
					<rect id="Rectangle_146" x="-15117.7" y="-47.2" transform="matrix(0.2788 -0.9604 0.9604 0.2788 -10939.7725 -14458.4043)" class="st0" width="43.1" height="203.2"/>
				<path id="Path_1761" class="st6" d="M-15004.5,103.6L-15004.5,103.6l-195.3-56.7c-0.6-0.3-0.8-0.6-0.6-1.1l12.1-41.4
					c0-0.3,0.3-0.5,0.6-0.6h0.6l195,56.7c0.6,0.3,0.8,0.6,0.6,1.1l-12.1,41.4c0,0.3-0.3,0.5-0.6,0.6H-15004.5z M-15198.4,45.6
					l193.4,56.1l11.6-39.7l-193.4-56.1L-15198.4,45.6z"/>
			</g>
			<g id="Group_1567" transform="translate(791.368 288.518)">
				<line id="Line_199" class="st7" x1="-15189.1" y1="4.8" x2="-15199.5" y2="40.3"/>
				<path id="Path_1762" class="st6" d="M-15199.5,41.2L-15199.5,41.2c-0.8-0.3-1.1-0.6-0.8-1.1l10.4-35.5c0.3-0.6,0.6-0.8,1.1-0.6
					c0.6,0.3,0.8,0.6,0.6,1.1l-10.4,35.5C-15198.7,40.9-15199,41.2-15199.5,41.2z"/>
			</g>
			<g id="Group_1568" transform="translate(742.147 218.541)">
				<path id="Path_1763" class="st0" d="M-15166.1,94c-2.6-4.8-5.6-9.3-9-13.5c1.1-3.4,12.1-37.2,9.9-49.3
					c-2.5-12.7-14.1-25.9-14.1-25.9l-20.3,12.7l14.7,16.9l2,47.9l0,0v9c0,1.5,0.5,3,1.4,4.2c0.6,0.9,1.2,1.8,2,2.5l0,0l0.3,0.3
					l0.3,0.3c2.6,2.6,5.6,4.8,9,6.2c0.3-0.3-0.8-2.8-2-5.1c0,0,4.8,3.7,6.8,3.7c0.3-0.6-2-5.1-3.4-6.8v-0.3c1.8,1.5,3.8,2.7,5.9,3.7
					C-15163.6,98.2-15164.8,96-15166.1,94z"/>
				<path id="Path_1764" class="st6" d="M-15170.3,105.5h-0.3c-3.5-1.5-6.7-3.7-9.3-6.5l-0.6-0.6c-0.8-0.8-1.4-2-2-2.5
					c-0.9-1.4-1.4-3.1-1.4-4.8v-9l-2-47.4l-14.4-16.6c-0.2-0.2-0.3-0.5-0.3-0.8c0-0.3,0.3-0.5,0.6-0.6l20.3-12.7
					c0.3-0.3,0.7-0.2,1,0.1c0.1,0.1,0.1,0.1,0.1,0.2c0.6,0.6,11.8,13.5,14.4,26.5c2.3,11.8-7.9,43.7-9.6,49.3
					c3.2,4.2,6.2,8.6,8.7,13.2c0.6,0.8,3.7,5.6,2.8,7c-0.3,0.3-0.8,0.6-1.1,0.3c-1-0.4-1.9-0.9-2.8-1.4c1.1,1.7,2,3.7,1.4,4.5
					c-0.2,0.2-0.5,0.3-0.8,0.3l0,0c-1.5-0.2-3-0.8-4.2-1.7c0.6,1.1,0.8,2.3,0.3,2.8C-15169.7,105.5-15170,105.6-15170.3,105.5z
					 M-15198.5,17.6l14.1,16.1c0,0.3,0.3,0.3,0.3,0.6l2,47.9v9c-0.1,1.3,0.3,2.6,1.1,3.7c0.3,0.6,1.1,1.4,1.7,2.5l0.3,0.6
					c1.9,2.1,4.2,3.8,6.8,5.1c-0.4-1-0.9-1.9-1.4-2.8c-0.3-0.3-0.2-0.7,0.1-1c0.1-0.1,0.1-0.1,0.2-0.1c0.3-0.3,0.8-0.3,1.1,0
					c1.5,1.3,3.2,2.3,5.1,3.1c-0.8-1.7-1.8-3.4-2.8-5.1l-0.3-0.3v-0.3c0-0.3,0-0.8,0.6-0.8c0.3-0.3,0.8-0.3,1.1,0
					c1.2,1.1,2.5,2,3.9,2.8c-0.6-1.3-1.3-2.5-2.3-3.7l0,0c-2.5-4.8-5.4-9.3-8.7-13.5c-0.2-0.2-0.3-0.5-0.3-0.8
					c4.5-13.5,11.6-39.2,9.9-48.8c-2-10.7-11.3-22.3-13.5-25.1L-15198.5,17.6z"/>
			</g>
			<path id="Path_1765" class="st6" d="M-14495,183.7c-1.1,0-2.2-0.3-3.1-0.8c-0.4-0.4-0.5-0.9-0.3-1.4c0.3-0.6,0.8-0.6,1.4-0.3
				c0.8,0.6,1.8,0.8,2.8,0.6c0.8-0.3,1.6-0.8,2.3-1.4c0.3-0.5,0.9-0.6,1.4-0.3s0.6,0.9,0.3,1.4c-0.8,1.1-2,2-3.4,2.3h-1.4V183.7z"/>
			<path id="Path_1766" class="st6" d="M-14471.9,145.6c0,0,13.5,2.5,14.9,26.8c0.3,0-1.4,14.1,5.1,18.3c0,0,5.4,2.5,1.4,14.1
				c0.3,0.3-5.1-5.9-10.1-7.6c0,0.3-12.4-38.9-12.4-38.9L-14471.9,145.6z"/>
			<g id="Group_1569" transform="translate(21.587 133.7)">
				<path id="Path_1767" class="st0" d="M-15164.6,26L-15164.6,26c0,0,2.5-0.8,2.3-1.1c-2-5.4-8.2-10.7-10.4-12.4
					c-1.6-2.5-3.4-4.8-5.4-7l-21.7,14.1l6.8,17.5c0,0.3,0.3,0.6,0.3,0.8h2c5.6,0,10.1,3.1,13.5,7.6l-5.4,0.8l-2,12.1h16.9l1.1-14.7
					c2.3-1.1,4.2-2.3,4.8-3.7C-15160.9,35.9-15162.3,30.8-15164.6,26z"/>
				<path id="Path_1768" class="st6" d="M-15167.7,59h-16.9c-0.3,0-0.6,0-0.6-0.3s-0.3-0.6-0.3-0.8l2-12.1c0-0.3,0.3-0.6,0.8-0.8
					l3.9-0.6c-2.8-3.7-7.2-5.9-11.8-5.9h-2c-0.3,0-0.8-0.3-0.8-0.6v-0.3c0-0.3-0.3-0.3-0.3-0.6l-6.8-17.5c-0.3-0.3,0-0.8,0.3-1.1
					l22-14.4c0.3-0.3,0.7-0.2,1,0.1c0.1,0.1,0.1,0.1,0.1,0.2c0,0,2.3,2.8,5.4,6.8c2.5,2.3,8.5,7.3,10.4,12.7v0.6
					c0,0.3-0.3,0.8-2,1.4c2.3,5.4,3.1,9.9,2.5,13.5v0.3c-0.6,1.4-2.3,2.5-4.8,3.9l-1.1,14.1C-15166.8,58.7-15167.4,59-15167.7,59z
					 M-15183.8,57.3h15.2l1.1-13.8c0-0.3,0.3-0.6,0.6-0.8c1.7-0.8,3.2-1.8,4.5-3.1c0.6-3.4-0.3-7.6-2.8-13v-0.8
					c0-0.3,0.3-0.3,0.6-0.3c0.6-0.3,1.1-0.3,1.4-0.6c-2-5.1-7.9-10.1-9.9-11.6l-0.3-0.3c-2-2.8-3.9-5.1-4.8-6.2l-20.6,13.5l6.5,16.6
					h1.4c5.4,0,10.4,2.8,14.1,7.9c0.2,0.2,0.3,0.5,0.1,0.7l-0.1,0.1c0,0.3-0.3,0.5-0.6,0.6l-4.8,0.8L-15183.8,57.3z"/>
			</g>
			<path id="Path_1769" class="st6" d="M-15151.7,125.4c-1.8-0.9-3.7-1.4-5.6-1.4c3.1-1.7,3.7-2.5,3.7-2.8c-0.3-0.8-5.4-0.8-9.6,1.4
				c-1.5,0.7-2.8,1.7-3.9,2.8c-0.9-0.3-1.9-0.4-2.8-0.3c-3.4,0.3-5.6,2.5-6.8,3.7c-2,2.1-3.5,4.8-4.2,7.6c0.6-4.5,0.3-5.9-0.3-5.9
				c-1.1-0.3-4.8,6.5-4.2,13.8c0.3,3.1,1.3,6.1,3.1,8.7c-3.1-2.8-3.9-3.1-3.9-2.8c-0.6,0.6,1.4,5.4,5.9,8.2
				c0.4,3.7,1.3,7.3,2.8,10.7c2.5,6.2,9.6,9.9,16.3,10.7h6.2l-5.1-11.6l3.4-2c2.5-1.5,3.6-4.6,2.5-7.3l-2.5-7.9
				c5.6-2,9.3-5.6,9.9-9.9c0.2-1.7-0.1-3.5-0.8-5.1c0-0.6-0.6-1.1-0.8-1.7c2.3,1.1,2.8,1.1,3.1,0.8
				C-15144.4,134.4-15146.7,128.2-15151.7,125.4z"/>
			<path id="Path_1770" class="st0" d="M-15163,163.1c-0.6,1.7,0.6,4.2,2.8,5.4s4.5,0.6,5.1-1.1c0.6-1.7-0.6-4.2-2.8-5.4
				C-15160.2,160.9-15162.4,161.1-15163,163.1z"/>
			<path id="Path_1771" class="st5" d="M-14685,344.9l-144.3-0.3v-10.4h144.3V344.9z"/>
			<path id="Path_1772" class="st4" d="M-14699.3,321l-50.2-0.3v-10.4h50.2V321z"/>
			<path id="Path_1773" class="st4" d="M-14637.9,249.1l-140.4-0.3v-10.4h140.4V249.1z"/>
			<path id="Path_1774" class="st2" d="M-14712,273l-70.7-0.3v-10.4h70.7V273z"/>
			<g id="Group_1570" transform="translate(372.624 239.302)">
				<path id="Path_1775" class="st6" d="M-14963.5,101.1h-234.8c-0.3,0-0.6-0.3-0.5-0.6c0-0.3,0.2-0.5,0.5-0.5h235.1
					c0.3,0,0.5,0.3,0.6,0.6C-14962.6,100.8-14962.9,101.1-14963.5,101.1z"/>
				<path id="Path_1776" class="st6" d="M-14961.5,5h-236.8c-0.3,0-0.6-0.3-0.5-0.6c0-0.3,0.2-0.5,0.5-0.5h236.8
					c0.3,0,0.5,0.3,0.6,0.6C-14960.9,4.7-14960.9,5-14961.5,5z"/>
				<path id="Path_1777" class="st6" d="M-14980.4,125.1h-217.9c-0.3,0-0.6-0.3-0.5-0.6c0-0.3,0.2-0.5,0.5-0.5h217.9
					c0.3,0,0.6,0.2,0.6,0.5C-14979.8,124.8-14980,125.1-14980.4,125.1C-14980.3,125.1-14980.3,125.1-14980.4,125.1z"/>
				<path id="Path_1778" class="st6" d="M-14978.1,29h-221.8c-0.3,0-0.6-0.3-0.5-0.6c0-0.3,0.2-0.5,0.5-0.5h221.8
					c0.3,0,0.6,0.3,0.5,0.6C-14977.6,28.7-14977.8,28.9-14978.1,29z"/>
				<path id="Path_1779" class="st6" d="M-14956.7,52.9h-243c-0.3,0-0.6-0.3-0.5-0.6c0-0.3,0.2-0.5,0.5-0.5h243
					c0.3,0,0.6,0.3,0.5,0.6C-14956.2,52.7-14956.4,52.9-14956.7,52.9z"/>
				<path id="Path_1780" class="st6" d="M-15014.2,77.2h-185.5c-0.3,0-0.6-0.3-0.5-0.6c0-0.3,0.2-0.5,0.5-0.5h185.5
					c0.3,0,0.6,0.3,0.5,0.6C-15013.7,76.9-15013.9,77.1-15014.2,77.2z"/>
			</g>
			<g id="Group_1575" transform="translate(557.527 230.565)">
				<g id="Group_1571" transform="translate(0 0.564)">
					<path id="Path_1781" class="st4" d="M-15196.8,18.2l-2.5-13l13.5,3.9l-3.1,11.3L-15196.8,18.2z"/>
					<path id="Path_1782" class="st9" d="M-15188.4,21.6l-9.3-2.8l-2.8-14.9l15.8,4.5L-15188.4,21.6z M-15196,17.4l6.5,2l2.8-9.6
						l-11.3-3.1L-15196,17.4z"/>
				</g>
				<g id="Group_1573" transform="translate(17.077)">
					<g id="Group_1572">
						<path id="Path_1783" class="st0" d="M-15163.7,15.1l-9,31.3l-26.5-19.7l3.7-13.8l0.8-2l0.8-3.4l33.3-2.5l-2.3,7L-15163.7,15.1
							z"/>
						<path id="Path_1784" class="st6" d="M-15172.8,47.3c-0.3,0-0.3,0-0.6-0.3l-26.8-19.7c-0.3-0.3-0.6-0.6-0.3-1.1l5.6-19.2
							c0-0.3,0.6-0.6,0.8-0.6l33.3-2.5c0.5-0.1,1.1,0.3,1.1,0.9c0,0.1,0,0.2,0,0.3l-12.4,41.7
							C-15172.1,47.1-15172.4,47.3-15172.8,47.3L-15172.8,47.3z M-15198.4,26.1l25.1,18.6l8.7-30.2l0,0l2.5-9l-31.3,2.5
							L-15198.4,26.1z"/>
					</g>
				</g>
				<g id="Group_1574" transform="translate(9.755 1.017)">
					
						<rect id="Rectangle_147" x="-15203.6" y="10.5" transform="matrix(0.2651 -0.9642 0.9642 0.2651 -11179.6729 -14639.501)" class="st0" width="19.7" height="7.9"/>
					<path id="Path_1785" class="st6" d="M-15191.9,26.5C-15192.2,26.5-15192.2,26.2-15191.9,26.5l-7.9-2c-0.6,0-0.8-0.6-0.6-1.1
						l5.1-18.9c0-0.6,0.6-0.8,1.1-0.6l7.6,2c0.3,0,0.5,0.3,0.6,0.6c0,0.3,0.3,0.6,0,0.6l-5.1,18.9c0,0.3-0.3,0.5-0.6,0.6
						C-15191.7,26.2-15191.9,26.5-15191.9,26.5z M-15198.4,22.9l5.6,1.7l4.8-17.2l-5.6-1.7L-15198.4,22.9z"/>
				</g>
			</g>
		</g>
	</g>
</g>
</svg>
