<?xml version="1.0" encoding="utf-8"?>
<!-- Generator: Adobe Illustrator 22.0.1, SVG Export Plug-In . SVG Version: 6.00 Build 0)  -->
<svg version="1.1" id="Layer_1" xmlns="http://www.w3.org/2000/svg" xmlns:xlink="http://www.w3.org/1999/xlink" x="0px" y="0px"
	 viewBox="0 0 724.9 360.5" style="enable-background:new 0 0 724.9 360.5;" xml:space="preserve">
<style type="text/css">
	.st0{fill:#FFFFFF;stroke:#4770B2;stroke-width:7;}
	.st1{fill:#A6B9F4;}
	.st2{fill:#A8D1FF;}
	.st3{fill:#FF9570;}
	.st4{fill:#35D888;}
	.st5{fill:#0A1D2C;}
	.st6{fill:none;}
	.st7{fill:#1D65D8;}
	.st8{fill:#FFFFFF;}
	.st9{fill:none;stroke:#4770B2;stroke-width:7;stroke-linecap:round;}
</style>
<g id="Group_2051" transform="translate(15089 -1290)">
	<path class="st0" d="M-14529,1647c20.6-34.9,32.5-75.6,32.5-119.1c0-129.5-105-234.4-234.4-234.4c-129.5,0-234.4,105-234.4,234.4
		c0,43.5,11.8,84.2,32.5,119.1H-14529z"/>
	<g id="Group_1505" transform="translate(85.295 814.469)">
		<rect id="Rectangle_110" x="-14752.3" y="626.5" class="st1" width="262.3" height="15.7"/>
		<rect id="Rectangle_111" x="-14752.3" y="654.6" class="st1" width="189.4" height="15.7"/>
		<rect id="Rectangle_112" x="-14752.3" y="682.1" class="st1" width="245.7" height="15.7"/>
		<rect id="Rectangle_113" x="-15174.1" y="755.8" class="st2" width="232.1" height="15.7"/>
		<rect id="Rectangle_114" x="-15088.1" y="536" class="st3" width="238.9" height="15.7"/>
		<rect id="Rectangle_115" x="-15088.1" y="563.7" class="st3" width="258.5" height="15.7"/>
		<rect id="Rectangle_116" x="-15087.6" y="591.8" class="st3" width="106.8" height="15.7"/>
		<rect id="Rectangle_117" x="-15174.3" y="783.6" class="st2" width="201" height="15.7"/>
		<rect id="Rectangle_118" x="-14666.3" y="752.4" class="st4" width="218.4" height="15.7"/>
		<rect id="Rectangle_119" x="-14666.3" y="780.4" class="st4" width="190.6" height="15.7"/>
		<path id="Path_1130" class="st5" d="M-14855.7,544.9h-228.5c-0.4,0-0.7-0.4-0.7-0.8c0-0.4,0.3-0.7,0.7-0.7h228.5
			c0.4,0,0.7,0.2,0.7,0.5c0,0.1,0,0.1,0,0.2C-14855,544.6-14855.3,544.9-14855.7,544.9z"/>
		<path id="Path_1131" class="st5" d="M-14833.2,572.7h-251c-0.4,0-0.7-0.4-0.7-0.8c0-0.4,0.3-0.7,0.7-0.7h251
			c0.4,0,0.7,0.2,0.7,0.5c0,0.1,0,0.1,0,0.2C-14832.5,572.3-14832.8,572.7-14833.2,572.7z"/>
		<path id="Path_1132" class="st5" d="M-14985.9,600.7h-98.1c-0.4,0-0.7-0.4-0.7-0.8c0-0.4,0.3-0.7,0.7-0.7h98.1
			c0.4,0,0.7,0.3,0.8,0.7C-14985.1,600.3-14985.4,600.7-14985.9,600.7C-14985.8,600.7-14985.9,600.7-14985.9,600.7z"/>
		<path id="Path_1133" class="st5" d="M-14494.3,635.2h-255.3c-0.4,0-0.7-0.3-0.8-0.7c0-0.4,0.3-0.7,0.7-0.8c0,0,0,0,0.1,0h255.3
			c0.3,0,0.7,0.2,0.7,0.5c0,0.1,0,0.1,0,0.2C-14493.6,634.9-14493.9,635.2-14494.3,635.2z"/>
		<path id="Path_1134" class="st5" d="M-14569.4,663h-180.2c-0.4,0-0.7-0.4-0.7-0.8c0-0.4,0.3-0.7,0.7-0.7h180.2
			c0.4,0,0.7,0.3,0.8,0.7C-14568.6,662.7-14568.9,663-14569.4,663L-14569.4,663z"/>
		<path id="Path_1135" class="st5" d="M-14513.8,690.8h-235.8c-0.4,0-0.7-0.4-0.7-0.8c0-0.4,0.3-0.7,0.7-0.7h235.8
			c0.4,0,0.7,0.3,0.8,0.7C-14513.1,690.5-14513.4,690.8-14513.8,690.8L-14513.8,690.8z"/>
		<g id="Group_1129" transform="translate(681.923 1838.353)">
			<line id="Line_130" class="st6" x1="-15344.6" y1="-1078" x2="-15086.6" y2="-1078"/>
			<path id="Path_1136" class="st5" d="M-15134.6-1077.5h-210c-0.4,0-0.7-0.3-0.8-0.7s0.3-0.7,0.7-0.8c0,0,0,0,0.1,0h210.2
				c0.4-0.1,0.7,0.2,0.7,0.5c0,0.1,0,0.1,0,0.2C-15133.6-1077.7-15134.1-1077.5-15134.6-1077.5z"/>
		</g>
		<path id="Path_1137" class="st5" d="M-14481.7,788.9h-181.2c-0.4,0-0.7-0.3-0.8-0.7c0-0.4,0.3-0.7,0.7-0.8c0,0,0,0,0.1,0h181.2
			c0.4,0,0.7,0.4,0.7,0.8S-14481.3,788.9-14481.7,788.9z"/>
		<g id="Group_1130" transform="translate(171.242 1806.949)">
			<rect id="Rectangle_120" x="-15345.3" y="-1078.9" class="st2" width="212.1" height="15.7"/>
			<path id="Path_1138" class="st5" d="M-15139.7-1070.5h-202.2c-0.4,0-0.7-0.4-0.7-0.8s0.3-0.7,0.7-0.7h202.2
				c0.4,0,0.7,0.4,0.7,0.8C-15139-1070.8-15139.3-1070.5-15139.7-1070.5L-15139.7-1070.5z"/>
		</g>
		<path id="Path_1139" class="st5" d="M-14946,764.2h-224.7c-0.4,0-0.7-0.4-0.7-0.8c0-0.4,0.3-0.7,0.7-0.7h224.7
			c0.4,0,0.7,0.2,0.7,0.5c0,0.1,0,0.1,0,0.2C-14945.3,763.9-14945.6,764.2-14946,764.2z"/>
		<path id="Path_1140" class="st5" d="M-14977.2,792h-193.3c-0.4,0-0.7-0.4-0.7-0.8c0-0.4,0.3-0.7,0.7-0.7h193.3
			c0.4,0,0.7,0.2,0.7,0.5c0,0.1,0,0.1,0,0.2C-14976.5,791.7-14976.8,792-14977.2,792z"/>
		<g id="Group_1131" transform="translate(171.242 1779.169)">
			<rect id="Rectangle_121" x="-15345.3" y="-1078.9" class="st2" width="174.9" height="15.7"/>
			<path id="Path_1141" class="st5" d="M-15175.7-1070.5h-166.2c-0.4,0-0.7-0.3-0.8-0.7c0-0.4,0.3-0.7,0.7-0.8c0,0,0,0,0.1,0h166.2
				c0.4,0,0.7,0.2,0.7,0.5c0,0.1,0,0.1,0,0.2C-15175-1070.8-15175.3-1070.5-15175.7-1070.5z"/>
		</g>
		<path id="Path_1142" class="st7" d="M-14782.2,685.5c-3.9,0-8.5-2.9-12.1-8c-4.8-6.8-5.3-14-1.4-16.9c4.1-2.9,10.9,0.2,15.5,6.8
			c4.8,6.8,5.3,14,1.4,16.9C-14779.8,685.1-14781,685.6-14782.2,685.5z M-14792.1,662.1c-0.8,0-1.5,0.3-2.2,0.7
			c-2.9,1.9-1.9,8.2,1.9,13.5c3.9,5.3,9.4,8.2,12.1,6.3c2.9-1.9,1.9-8.2-1.9-13.5C-14785.1,664.7-14789.2,662.1-14792.1,662.1
			L-14792.1,662.1z"/>
		<g id="Group_1132" transform="translate(489.391 1733.658)">
			<path id="Path_1143" class="st8" d="M-15304.5-1081.4c0,0,22,10.9,36.2,36.2l-5.3,4.8c0,0,17.9,25.6,11.4,34.8
				c-8,9.9-31.2,17.4-31.2,17.4v34.3l-47.6-4.8l-3.4-50.7"/>
			<path id="Path_1144" class="st5" d="M-15293.6-952.8L-15293.6-952.8l-47.6-4.8c-0.4,0-0.7-0.3-0.7-0.7l-3.4-50.7
				c0-0.5,0.2-1,0.7-1s1,0.2,1,0.7l3.1,50l45.7,4.8v-33.3c0-0.5,0.2-0.7,0.7-1c0.2,0,22.9-7.5,30.9-16.9c5.1-7-6.5-26.6-11.4-33.6
				c-0.2-0.5-0.2-1,0.2-1.2l4.8-4.3c-14-24.4-35.3-35.3-35.5-35.3c-0.5-0.2-0.7-0.7-0.5-1.2s0.7-0.7,1.2-0.5
				c0.2,0,22.2,11.4,36.5,36.7c0.2,0.5,0.2,0.7-0.2,1.2l-4.8,4.3c2.9,4.1,17.2,26.3,10.9,35c-7.5,9.2-27.3,16.2-31.2,17.4v33.8
				c0,0.3-0.1,0.5-0.2,0.7C-15293.1-953.1-15293.4-952.8-15293.6-952.8z"/>
		</g>
		<g id="Group_1133" transform="translate(399.03 1697.683)">
			<path id="Path_1145" class="st5" d="M-15332-995.6c-2.4,3.1-4.1,7-2.7,10.6c1.5,3.6,7,5.3,9.2,1.9c-2.2,4.6-2.2,10.6,1.2,14.5
				s10.1,4.8,13.5,1c-2.7,4.6-1.9,10.5,1.9,14.3c4,3.6,9.9,4.1,14.5,1.2c-0.5,5.1,4.6,9.9,9.4,8.7s6.8-8.7,2.7-11.6
				c2,2.7,4.4,5.1,7,7.2c2.4,1.9,5.3,3.6,8.2,3.9c2.9,0.2,6.5-1,8-3.6c1.5-2.7,0-6.8-2.9-7.5c3.6,2.7,7.2,5.3,11.6,6
				c4.4,0.7,9.4-1,11.1-5.1c1.4-3.9-0.5-8-2.4-11.4c3.6,1.9,7.7,3.9,11.6,3.1c4.1-0.7,7-6,4.3-9.2c-0.7-0.7-1.7-1.4-1.9-2.2
				c-0.2-1,0-2,0.5-2.9c2.1-4.7,4.7-9.3,7.7-13.5c2.4-3.4,4.8-6.5,6-10.4s0.2-8.7-3.1-10.6c2.8-1.8,5.4-4,7.7-6.5
				c0.8-0.7,1.3-1.6,1.4-2.7c-0.1-1-0.7-1.8-1.4-2.4c-2.9-2.9-6.4-5.2-10.1-6.8c3.8-2.1,5.3-6.9,3.2-10.7c-1.9-3.5-6.2-5.1-9.9-3.5
				l2.2-10.1c0.4-1,0.4-2.1,0-3.1c-0.6-1.7-2.4-2.5-4.1-1.9c-1.7,0.2-3.1,1.4-4.3,2.4c-0.5-3.6-1.4-7.7-4.1-9.9
				c-2.9-2.4-8.2-1.7-9.2,1.9c-2.1-5.1-7.3-8.4-12.8-8c-1.3,0.3-2.7,0.4-4.1,0.2c-2.9-0.5-4.8-3.1-7.7-3.6c-2.4-0.5-4.8,1.2-7.2,2.2
				c-4.9,2.2-10.5,2.6-15.7,1.2c-1.4-0.5-2.9-1-4.3-0.5c-1.9,0.5-3.1,2.7-3.1,4.8c0,1.9,1,3.9,1.7,5.8c-3.6-1.2-7.7-2.4-11.4-1
				c-3.6,1.2-6.3,6.3-3.6,9.2c-3.1-1-6.5-1.9-9.4-0.5s-4.3,5.8-1.7,7.7c-2.9,1.2-5.8,2.7-7.7,5.3c-1.9,2.4-2.2,6.5,0,8.7
				c1.7,1.4,4.1,1.9,5.1,3.9c-3.4,0.7-6.7,1.9-9.7,3.6c-0.8,0.4-1.4,1.1-1.7,1.9c0.1,0.7,0.4,1.4,1,1.9c2.3,2.4,4.8,4.6,7.5,6.5
				c-3.6,0.7-7,3.4-7.7,7s2.4,7.7,6.3,7.2c-3.4,0-6.3,3.4-5.6,6.5s5.1,5.1,7.7,2.9"/>
			<path id="Path_1146" class="st5" d="M-15337.3-998.8c-3.9,6.3-6.3,14.7,0,20.5c5.1,4.3,11.1,3.6,15.7-0.2l-10.1-5.8
				c-5.6,15,8,33.3,23.7,22.5c-2.9-2.2-5.8-4.6-8.9-6.8c-7,16.9,9.9,29.7,25.1,22.2c-3.1-1.7-6-3.4-9.2-5.3
				c1.2,8.9,8.7,18.1,18.6,13.8c8.9-3.6,9.7-14.5,3.9-21.3c-5.1-6-13.3,2.7-8.5,8.5c6.5,8,18.1,17.6,28.5,10.6
				c5.4-3.4,7-10.6,3.5-16c-1.1-1.7-2.6-3.1-4.5-4.1c-7-3.9-12.3,5.8-6,10.4c7.2,5.3,16.7,10.1,25.4,4.8c9.2-5.6,7-15.5,3.1-23.4
				l-8.2,8.2c7.5,3.6,16.7,6.5,22.9-0.5c5.1-5.8,2.9-12.1-1.4-17.4l1.4,5.8c2.4-14.7,24.9-28.7,9.7-43.5c-0.5,3.1-0.7,6.3-1.2,9.4
				c4.6-3.1,12.1-8,12.1-14.5c-0.2-7-9.4-11.8-14.5-14.5c0.5,3.1,0.7,6.3,1.2,9.4c12.6-10.6,2.4-27.3-12.6-24.2l7.5,7.5
				c1.2-6,5.1-14.7-0.2-19.8c-4.3-4.3-10.4-3.1-15,0.5c2.9,1.2,5.8,2.4,8.9,3.6c-1.9-11.4-16.2-24.2-24.4-9.7h10.4
				c-3-5.7-8.4-9.7-14.7-10.9c-4.3-0.7-9.4-2.7-13.5-3.1c-4.1-0.5-7.2,1.4-11.4,2.4c-7,1.7-17.2-2.4-23.2,2.9
				c-5.1,4.8-3.6,11.1-1.2,16.9c2.2-2.9,4.6-5.8,6.8-8.9c-12.3-3.6-28.5,1.4-21.7,17.2c2.2-2.9,4.6-5.8,6.8-8.9
				c-5.8-1.7-12.6-2.4-17.2,2.4c-3.6,3.7-3.9,9.5-0.7,13.5c0.7-2.7,1.4-5.6,2.2-8.2c-5.6,2.7-11.4,6.5-12.1,13.3
				c-1,7.7,4.1,8.9,8.2,14c1-3.4,1.7-6.8,2.7-10.1c-5.3,1.4-10.4,2.9-14,7.2c-1.8,2-2.2,4.9-1,7.2c2.2,4.1,5.8,7,9.4,9.9
				c1-3.4,1.7-6.8,2.7-10.1c-12.6,4.3-17.9,23.2-1.4,26.1v-11.6c-15.5,5.1-9.9,27.1,5.3,21c7.2-2.9,4.1-14.5-3.1-11.6
				c0.2,0.7,0.7,1.4,1,2.2c5.3-1.7,6.3-10.4,0-11.6l1.4-2.9c3.9-1.2,6.5-7,2.7-10.1c-2.7-2.2-6-4.3-7.5-7.5c-0.2,2.4-0.7,4.8-1,7.2
				c2.5-2.1,5.5-3.5,8.7-4.1c4.8-1.2,5.3-6.8,2.7-10.1c-0.5-0.7-3.4-2.7-3.4-3.1c-0.5-2.2,2.2-3.9,4.8-5.3c2.7-1.5,3.9-5.8,2.2-8.2
				c1.4,0.5,2.9,1.2,4.3,1.7c5.6,1.4,8.7-4.3,6.8-8.9c2.7-0.7,5.6-0.5,8.2,0.7c5.6,1.7,8.7-4.3,6.8-8.9c-2.2-1.7-1.2-1.7,2.9-0.2
				c1.8,0.3,3.7,0.4,5.6,0.2c3.4-0.2,6.3-1.7,9.4-2.2c5.8-0.7,22.2,0.7,25.1,6.3c1.8,2.9,5.5,3.8,8.4,2c0.8-0.5,1.5-1.2,2-2
				c1.4,2,2.2,4.3,2.2,6.8c0.7,3.6,6,5.8,8.9,3.6c-1.2-1.4-1.7-1-1.4,1c-0.2,1.7-0.7,3.4-1,5.1c-0.8,3.4,1.3,6.7,4.6,7.5
				c0.9,0.2,1.9,0.2,2.8,0c0.2,1.4,0.7,2.7,1,4.1c-2.9,2.4-1.9,7.7,1.2,9.4c3.7,1.5,7,4,9.4,7.2v-6c-1.6,3-4.1,5.4-7,7
				c-3.1,2.2-4.1,6.5-1.2,9.4c5.8,5.6-9.4,21-11.6,27.3c-0.7,1.9-0.7,3.9-1.2,6c-1,3.1,8.2,9.7-5.1,3.1c-2.9-1.6-6.6-0.5-8.2,2.4
				c-1,1.8-1,4,0,5.8c-2.2,5.8-4.8,7.5-8,5.1c-1.4-1-2.7-1.9-4.1-2.9c-1.9,3.4-4.1,7-6,10.4c-5.6-2.9-8.9-4.6-13-9.4l-8.5,8.5
				c-0.7-0.5-1.2-0.7-1.9-1.2c-0.5-4.6-4.6-7.5-9.2-5.3c-8.2,0.5-10.6-2.4-7.5-8.7c1.9-4.8-4.8-9.7-8.9-6.8
				c-6.5-1.7-8.5-4.6-5.8-8.7c2.2-6.3-6-9.4-10.1-5.8c1-1.9,2.2-3.6,3.1-5.6C-15322.8-999.3-15333.2-1005.3-15337.3-998.8
				L-15337.3-998.8z"/>
		</g>
		<g id="Group_1134" transform="translate(410.875 1681.23)">
			<path id="Path_1147" class="st5" d="M-15255.2-1068.8c-1-3.4-2.9-6.5-6.5-7.2s-8,2.7-6.8,6c-2.2-4.1-6.7-6.6-11.4-6.3
				c-4.8,0.5-9.2,5.3-8.5,9.9c-1.7-4.3-7-6.8-11.6-5.6s-8.7,5.8-8.9,10.4c-3.4-2.7-9.9-1.2-11.8,2.9c-1.9,4.1,2.7,9.4,7.2,7.7
				c-3.2,0.2-6.4,0.8-9.4,1.7c-2.9,0.8-5.5,2.3-7.7,4.3c-1.9,2.2-2.9,5.3-1.7,8c1.2,2.4,5.1,3.4,7.2,1.4c-3.9,1.4-8,2.9-11.1,5.8
				s-4.6,7.7-2.4,10.9c1.9,2.9,6,3.6,9.7,3.9c-3.4,1.9-7.2,3.9-8.9,7.2c-1.7,3.4,0.5,8.5,4.3,8c0.8-0.3,1.8-0.4,2.7-0.2
				c0.8,0.3,1.5,0.9,1.9,1.7c2.4,3.9,4.4,8.2,5.8,12.6c1.2,3.4,1.9,7,4.1,9.7c2.2,2.7,6.3,4.3,9.7,2.9c-0.3,3-0.2,6,0.5,8.9
				c0.1,0.9,0.5,1.8,1.2,2.4c0.8,0.4,1.8,0.4,2.7,0c3.8-0.9,7.5-2.4,10.9-4.3c-0.7,3.6,2.2,7.2,5.8,7.7s7.7-2.4,8.7-5.8
				c2.2,2.2,4.1,4.3,6.3,6.5c0.7,0.7,1.2,1.4,2.2,1.4c1.6,0.1,3.1-0.7,3.9-2.2c0.6-1.4,0.9-3,0.7-4.6c2.9,1.4,6.5,2.7,9.9,1.7
				s6-5.3,3.9-7.7c5.2,0.9,10.4-1.4,13.3-5.8c0.6-1.2,1.3-2.3,2.2-3.4c1.9-1.9,5.1-2.2,7-4.1c1.7-1.7,1.9-4.3,2.4-6.5
				c1.3-4.9,4.1-9.3,8-12.6c1.2-1,2.4-1.7,2.9-3.1c0.6-1.7-0.1-3.6-1.7-4.6c-1.6-0.9-3.5-1.4-5.3-1.4c2.9-2.2,6.3-4.8,7.2-8.2
				c1.2-3.4-1.2-7.7-4.8-7.2c2.4-1.9,5.1-4.1,5.8-6.8c0.7-2.7-1.9-6.3-4.8-5.1c0.7-2.9,1.2-5.8,0.5-8.5s-3.4-4.8-6.3-4.1
				c-1.9,0.5-3.9,2.2-5.8,1.9c1.4-2.9,2.4-6,2.9-9.2c0-0.7,0.2-1.7-0.5-2.2c-0.5-0.5-1.4-0.2-2.2-0.2c-3.1,0.5-6.2,1.4-9.2,2.4
				c1.4-3.1,1.4-7-1-9.4c-2.4-2.2-7.2-1.9-8.9,1.2c1.7-2.2,1.2-5.4-1-7c-0.2-0.2-0.5-0.3-0.7-0.4c-2.7-1-6.5,1.4-6.5,4.3"/>
			<path id="Path_1148" class="st5" d="M-15249.4-1070.2c-2.7-6.5-7-12.6-15-11.6c-6.3,0.7-9.9,5.8-10.1,11.8
				c3.9-1,7.5-1.9,11.4-3.1c-9.4-12.8-30.2-11.8-31.2,6.5c3.9-1,7.5-1.9,11.4-3.1c-8.7-14-28.5-9.4-31.6,6.3
				c2.9-1.2,5.8-2.4,8.9-3.6c-21.7-10.6-28.7,23.9-7.7,22v-12.1c-9.4,1-22.2,3.6-24.9,14.5c-2.2,9.2,6,16.4,15,12.8
				c7-2.9,4.3-14.3-3.1-11.6c-8.5,3.1-18.4,8-18.8,18.4c-0.2,9.9,8.2,13,16.7,14c-1-3.9-1.9-7.5-3.1-11.4
				c-5.8,3.1-11.8,7.2-12.3,14.5c-0.5,7.5,4.1,8.7,9.2,11.8c6.5,3.9,6.3,14.7,10.9,21c4.1,5.6,10.1,7,16.7,5.6
				c-2.7-1.9-5.1-3.9-7.7-5.8c0,5.3,0,9.7,2.4,14.5c1.1,1.9,3.1,3,5.3,2.9c6,0.2,11.4-2.4,16.4-5.1c-3.1-1.7-6-3.4-9.2-5.3
				c0.7,15,19.1,18.4,25.6,4.8c-3.1,0.5-6.3,0.7-9.4,1.2c4.3,4.6,9.4,12.1,16.7,9.2c5.1-1.9,6.8-7,6.8-12.1
				c-2.7,1.9-5.1,3.9-7.7,5.8c9.4,3.9,26.1,0.2,21-13.5c-1.9,2.7-3.9,5.1-5.8,7.7c7.2,0.5,12.6-2.2,17.4-7.7
				c5.1-5.8,9.9-7.2,12.8-15c2.2-6,5.3-8.7,8.9-13.8c1.7-2.4,2.4-3.9,2.4-6.8c0-6.5-5.6-9.7-11.4-10.6c1,3.4,1.7,6.8,2.7,10.1
				c8-6.3,15.5-22.9-0.2-25.6c1,3.4,1.7,6.8,2.7,10.1c8.7-7,11.1-21.3-3.1-22.2c1.9,2.7,3.9,5.1,5.8,7.7c1.2-6,1.9-12.6-3.1-17.2
				c-5.3-4.8-10.1-2.2-15.9-1c2.2,2.9,4.6,5.8,6.8,8.9c2.2-5.3,4.1-10.1,2.9-15.9c-0.7-2.9-3.1-4.1-5.8-4.3c-4.3-0.5-8.7,1-12.8,2.4
				l7.5,7.5c3.9-13.3-8.9-24.6-20-14l10.1,5.8c5.3-15-15.7-21-19.8-6.3c-2.2,7.5,9.4,10.6,11.6,3.1c-1.2,0-2.2-0.2-3.4-0.2
				c-2.2,6,6,9.9,10.1,5.8c0,0.7-0.2,1.4-0.2,2.4c-1.2,4.3,3.1,8.9,7.5,7.5c3.1-1,6.3-2.4,9.7-1.9l-5.8-4.3c0,2.4-0.5,4.7-1.7,6.8
				c-1.9,4.8,1.2,10.1,6.8,8.9c4.1-0.7,5.3-2.9,4.1,3.4c-0.7,4.1,1.7,7.5,5.8,7.7c-2.2-1-3.9-0.5-5.3,1.7c-3.4,2.7-1.7,9.4,2.7,10.1
				c-1.2,2.2-2.9,4-5.1,5.3c-3.4,2.7-1.7,9.4,2.7,10.1c3.1,1.2,3.6,0.7,1.4-1c-1.4,1.1-2.6,2.4-3.6,3.9c-2.2,2.9-4,6.2-5.3,9.7
				c-2.2,5.3-3.1,5.8-7.2,8.9c-4.8,3.6-4.6,8.9-12.3,8.5c-3.6-0.2-7.2,4.1-5.8,7.7c-2.2,0.5-4.4,0-6.3-1.2c-3.6-1.4-7.7,2.2-7.7,5.8
				c1.2-2.4,0.2-4.3-2.7-5.8c-2.4-2.7-7.7-2.2-9.4,1.2c-1,0.5-2.2,0.7-3.1,1.2c-0.1-3.4-2.9-6.1-6.4-6.1c-1,0-1.9,0.3-2.8,0.7
				c-3,2.2-6.7,3.4-10.4,3.4c1.7,1,3.4,1.9,5.3,2.9c-1-2.7-1.2-5.6-0.7-8.5c0-3.4-2.8-6.1-6.1-6c-0.5,0-1.1,0.1-1.6,0.2
				c-5.3,1.2-9.9-18.6-12.8-22.5c-1.2-1.4-2.9-2.4-4.1-3.9c-1-0.5-2-0.7-3.1-0.7c1.2-1.7,2.9-2.9,4.8-3.6c5.8-3.1,2.4-10.6-3.1-11.4
				c-11.6-1.4,5.8-8.7,5.3-8.7c-1-3.9-2.2-7.7-3.1-11.6c4.1-1.9,8.5-3.1,13-3.6c7.5-0.7,7.7-12.8,0-12.1c0.6,0.2,1.1,0.4,1.7,0.5
				c3.1,1.7,8,0.5,8.9-3.6c3.1-1.2,6.5-2.2,9.7-3.4c3.1,5.1,10.9,2.9,11.4-3.1c2.9-0.2,5.8-0.2,8.7-0.5c3.4,4.6,11.1,3.4,11.4-3.1
				c0.5,1,0.7,1.9,1.2,2.9C-15258.1-1060.1-15246.2-1063.3-15249.4-1070.2L-15249.4-1070.2z"/>
		</g>
		<g id="Group_1135" transform="translate(443.969 1855.845)">
			<path id="Path_1149" class="st8" d="M-15344.6-1026.2c0,0-2.2-32.9,48.8-54.8c0,0,37.7-3.6,67.9,9.9c-0.2,0.2,37.2,15.2,49,44.9
				H-15344.6z"/>
			<path id="Path_1150" class="st5" d="M-15178.6-1025.3h-165.7c-0.4,0-0.8-0.3-1-0.7c0-0.2-1.7-33.8,49.5-55.6h0.2
				c0.5,0,38.2-3.4,68.4,9.9c0.1,0,0.2,0.1,0.2,0.2l0,0c0.2,0,0.5,0.2,1,0.5c24.2,11.6,41.3,27.5,48.3,44.7v0.7
				C-15177.9-1025.3-15178.3-1025.3-15178.6-1025.3z M-15343.6-1027h163.5c-7-16.4-23.7-31.4-46.9-42.5c-0.5-0.1-0.9-0.4-1.2-0.7
				c-29-12.8-64.7-9.9-67.4-9.7C-15340.7-1060.5-15343.6-1032.3-15343.6-1027z"/>
		</g>
		<path id="Path_1151" class="st7" d="M-14818,695.5c-0.4-0.1-0.7-0.2-1-0.5c-0.4-0.5-0.3-1.3,0.2-1.7l0,0l35.5-29
			c0.5-0.4,1.3-0.3,1.7,0.3c0.4,0.5,0.3,1.3-0.2,1.7l-35.5,29C-14817.4,695.5-14817.7,695.6-14818,695.5z"/>
		<path id="Path_1152" class="st8" d="M-14811.2,698.3c0,0-23.4-11.6-17.9,12.1c0,0,4.8,13.5,16.2,12.3c0.2,0.5,9.9-12.6,9.9-12.6
			L-14811.2,698.3z"/>
		<g id="Group_1148" transform="translate(577.42 1717.906)">
			<g id="Group_1140" transform="translate(0 0)">
				
					<rect id="Rectangle_122" x="-15297.1" y="-1031" transform="matrix(0.849 -0.5284 0.5284 0.849 -1771.3458 -8235.5518)" class="st5" width="4.6" height="24.9"/>
				<g id="Group_1138">
					<g id="Group_1137">
						<g id="Group_1136">
							<path id="Path_1153" class="st8" d="M-15331.1-1076.7c-13.6,8.4-17.8,26.3-9.4,39.9s26.3,17.8,39.9,9.4
								c13.6-8.4,17.8-26.3,9.4-39.9c-8.2-13.6-25.9-17.9-39.4-9.7C-15330.8-1076.9-15331-1076.8-15331.1-1076.7z M-15302.2-1030.3
								c-12.1,7.5-28,3.9-35.5-8.2s-3.9-28,8.2-35.5s28-3.9,35.5,8.2l0,0C-15286.4-1053.8-15290.1-1037.9-15302.2-1030.3
								L-15302.2-1030.3z"/>
							<path id="Path_1154" class="st5" d="M-15315.7-1022.6c-16.4,0.1-29.8-13.1-29.9-29.6c-0.1-16.4,13.1-29.8,29.6-29.9
								s29.8,13.1,29.9,29.6c0.1,10.3-5.2,19.9-13.9,25.3C-15304.6-1024.1-15310.1-1022.5-15315.7-1022.6z M-15315.9-1080.6
								c-15.7,0-28.5,12.7-28.6,28.4c0,15.7,12.7,28.5,28.4,28.6c15.7,0,28.5-12.7,28.6-28.4c0-5.3-1.5-10.5-4.2-15
								C-15296.9-1075.5-15306.1-1080.6-15315.9-1080.6L-15315.9-1080.6z M-15315.7-1025.8c-2,0-4.1-0.2-6-0.7
								c-6.8-1.7-12.7-5.9-16.4-11.8c-7.7-12.3-3.9-28.5,8.4-36.2l0,0c12.4-7.7,28.7-3.8,36.3,8.6c3.6,5.9,4.8,12.9,3.3,19.7
								c-1.7,6.8-5.9,12.7-11.8,16.4l0,0C-15306-1027.2-15310.8-1025.8-15315.7-1025.8L-15315.7-1025.8z M-15315.9-1077.2
								c-4.7,0-9.3,1.3-13.3,3.9c-11.7,7.2-15.4,22.5-8.2,34.2c0.1,0.1,0.1,0.2,0.2,0.3c3.5,5.7,9.2,9.7,15.7,11.1
								c6.5,1.5,13.4,0.4,19.1-3.1l0,0c5.7-3.5,9.7-9.2,11.1-15.7c1.5-6.5,0.4-13.4-3.1-19.1s-9.2-9.7-15.7-11.1
								C-15312-1077-15314-1077.2-15315.9-1077.2L-15315.9-1077.2z"/>
						</g>
					</g>
				</g>
				<g id="Group_1139" transform="translate(44.835 59.718)">
					<path id="Path_1155" class="st8" d="M-15317-1048c1-0.5,1.6-1.6,1.4-2.7l-18.8-30.2c-0.5-0.7-1.7-0.7-2.7,0l-5.5,3.4
						c-1,0.7-1.7,1.7-1.2,2.4l18.8,30.2c0.5,0.7,1.7,0.7,2.9,0L-15317-1048z"/>
					<path id="Path_1156" class="st5" d="M-15324.3-1043.2c-0.8,0-1.5-0.3-1.9-1l-18.8-30.2c-0.2-0.5-0.3-1-0.2-1.4
						c0.3-0.9,0.9-1.7,1.7-2.2l5.6-3.4c0.8-0.5,1.7-0.7,2.7-0.5c0.5,0.2,0.9,0.5,1.2,1l18.8,30.2c0.7,1.2,0,2.9-1.7,3.9l0,0
						l-5.3,3.1C-15322.9-1043.3-15323.6-1043.2-15324.3-1043.2z M-15335.9-1080.2c-0.3,0-0.7,0.1-1,0.2l-5.6,3.4
						c-0.5,0.2-0.7,0.7-1,1l18.8,30.2c0.6,0.1,1.2-0.1,1.7-0.5l5.3-3.1c1-0.5,1.2-1.2,1-1.2l-18.8-30.2
						C-15335.4-1080.2-15335.6-1080.2-15335.9-1080.2L-15335.9-1080.2z"/>
				</g>
			</g>
			<g id="Group_1147" transform="translate(38.313 71.005)">
				<g id="Group_1145" transform="translate(10.146)">
					<g id="Group_1141">
						<path id="Path_1157" class="st8" d="M-15304.5-1051.1l-5.8,19.1c0,0-1.2,8.7-8.2,10.1c0.5-0.2-1,8.2-1,8.2l-25.1-3.4l0.2-2.7
							l2.4-17.9c0,0-3.1-30.7,2.4-41.1c0,0,6-6.3,23.2,0.7c1.5,0.7,2.5,2,2.7,3.6"/>
						<path id="Path_1158" class="st5" d="M-15319.4-1012.7L-15319.4-1012.7l-25.1-3.4c-0.5,0-0.7-0.5-0.7-1l0.2-2.7l2.4-17.9
							c-0.2-1-2.9-30.9,2.4-41.3c0-0.1,0.1-0.2,0.2-0.2l0,0c0.2-0.2,6.5-6.5,23.9,0.5c0.5,0.1,1,0.3,1.4,0.7
							c1.1,0.9,1.8,2.2,1.9,3.6c0,0.5-0.4,1-1,1s-1-0.4-1-1c0-1.1-0.7-2.2-1.7-2.7h-0.2c-15.2-6-21.3-1.7-22-1
							c-5.1,10.1-2.2,40.1-2.2,40.3l-2.7,19.8l23.4,3.1c0.5-2.9,1-6,1-6.8v-0.2c-0.2-0.5,0.2-1,0.5-1.2h0.2c6.3-1.2,7.5-9.2,7.5-9.4
							l5.8-19.3c0.2-0.5,0.7-0.8,1.3-0.6c0.5,0.2,0.7,0.6,0.7,1.1l-5.8,19.1c0,0.2-1.2,8.7-8,10.6c-0.1,2.6-0.5,5.2-1.2,7.7
							C-15318.7-1013.2-15319-1012.7-15319.4-1012.7z"/>
					</g>
					<g id="Group_1142" transform="translate(14.188 5.654)">
						<path id="Path_1159" class="st8" d="M-15344.7-1081.4l16.9,1.7c2.5,0.4,4.3,2.8,3.9,5.3c0,0.1,0,0.2,0,0.2
							c0.2,0.5,7.7,0.7,7,6.8c-0.2,0,7.2-0.7,5.1,6.3c-0.2-0.2-3.6,14.7-8.9,15.7c-0.2-0.2,2.2-10.9,2.9-13.5"/>
						<path id="Path_1160" class="st5" d="M-15320.8-1044.7c-0.2,0-0.5-0.2-0.7-0.2c-0.7-1,2.7-14.3,2.7-14.3
							c0.1-0.5,0.6-0.9,1.1-0.8s0.9,0.6,0.8,1.1c0,0.1,0,0.1,0,0.2c-0.5,2.2-1.9,8.7-2.7,11.8c2.2-1.4,4.3-6,6.5-13.3
							c0.2-0.7,0.2-1,0.5-1.2c0.5-1.7,0.5-2.9-0.2-3.9c-1.2-1.4-3.9-1.2-3.9-1.2l-0.2-1h-1c0.5-3.6-2.4-4.8-5.3-5.6
							c-1-0.2-1.2-0.2-1.4-1v-0.5c0.5-1.9-0.6-3.8-2.5-4.2c-0.2-0.1-0.4-0.1-0.7-0.1l-16.7-1.4c-0.5,0-1-0.5-0.7-1
							c0-0.5,0.5-1,1-0.7l16.9,1.7c1,0.2,1.9,0.6,2.7,1.2c1.4,1.1,2.2,2.8,2.2,4.6l0,0c1.9,0.5,6.8,1.7,7,6.3
							c1.4,0.1,2.7,0.5,3.9,1.2c1.2,1,2.4,2.7,1.2,6.3v0.2c0,0.2-0.2,0.5-0.2,1C-15313.3-1053.9-15316.2-1045.6-15320.8-1044.7
							L-15320.8-1044.7z"/>
					</g>
					<g id="Group_1143" transform="translate(28.505 17.555)">
						<line id="Line_131" class="st6" x1="-15344.6" y1="-1081.2" x2="-15331.3" y2="-1079.5"/>
						<path id="Path_1161" class="st5" d="M-15331.3-1078.6L-15331.3-1078.6l-13.3-1.7c-0.5,0-0.7-0.5-0.7-1s0.5-0.7,1-0.7l13.3,1.7
							c0.5,0,0.7,0.5,0.7,1C-15330.6-1078.8-15330.8-1078.6-15331.3-1078.6z"/>
					</g>
					<g id="Group_1144" transform="translate(25.123 11.516)">
						<line id="Line_132" class="st6" x1="-15344.3" y1="-1081.2" x2="-15334.9" y2="-1080"/>
						<path id="Path_1162" class="st5" d="M-15334.9-1079L-15334.9-1079l-9.7-1.2c-0.5,0-0.7-0.5-0.7-1s0.5-0.7,1-0.7l9.4,1.2
							c0.5,0,0.7,0.5,0.7,1C-15333.9-1079.5-15334.4-1079-15334.9-1079z"/>
					</g>
				</g>
				<g id="Group_1146" transform="translate(0 59.347)">
					<path id="Path_1163" class="st8" d="M-15336.4-1081l-8,63h41.1l-3.1-59.2L-15336.4-1081z"/>
					<path id="Path_1164" class="st5" d="M-15303.3-1017.2h-41.1c-0.5,0.1-0.9-0.3-1-0.7c0-0.1,0-0.2,0-0.2l8-63
						c0-0.2,0.1-0.4,0.2-0.5c0.2-0.2,0.5-0.3,0.7-0.2l30,3.9c0.5,0,0.7,0.5,0.7,1l3.1,58.9c0,0.3-0.1,0.5-0.2,0.7
						C-15302.8-1017.2-15303-1017.2-15303.3-1017.2z M-15343.4-1018.9h39.1l-3.1-57.3l-28.3-3.6L-15343.4-1018.9z"/>
				</g>
				<path id="Path_1165" class="st5" d="M-15306.4-1005.7L-15306.4-1005.7l-31.6-4.1c-0.5,0-0.7-0.5-0.7-1s0.5-0.7,1-0.7l31.4,4.1
					c0.5,0,0.7,0.5,0.7,1C-15305.4-1005.9-15305.9-1005.7-15306.4-1005.7z"/>
			</g>
		</g>
	</g>
	<line id="Line_214" class="st9" x1="-15075.7" y1="1647.1" x2="-14406.7" y2="1647.1"/>
</g>
</svg>
