<?xml version="1.0" encoding="utf-8"?>
<!-- Generator: Adobe Illustrator 22.0.1, SVG Export Plug-In . SVG Version: 6.00 Build 0)  -->
<svg version="1.1" id="Layer_1" xmlns="http://www.w3.org/2000/svg" xmlns:xlink="http://www.w3.org/1999/xlink" x="0px" y="0px"
	 viewBox="0 0 583 377.2" style="enable-background:new 0 0 583 377.2;" xml:space="preserve">
<style type="text/css">
	.st0{fill:#FFFFFF;stroke:#4770B2;stroke-width:7;stroke-miterlimit:10;}
	.st1{fill:#FFA785;}
	.st2{fill:#ED8658;}
	.st3{fill:#35D888;}
	.st4{fill:#00A596;}
	.st5{fill:#A6B9F4;}
	.st6{fill:#1D65D8;}
	.st7{fill:#A8D1FF;}
	.st8{fill:#3D68AF;}
	.st9{fill:none;stroke:#4770B2;stroke-width:7;stroke-linecap:round;}
</style>
<g id="Group_2053" transform="translate(15089 -1290)">
	<path class="st0" d="M-14572.2,1667.2c17.6-34.8,27.5-74.1,27.5-115.8c0-142.2-115.3-257.5-257.5-257.5
		c-142.2,0-257.5,115.3-257.5,257.5c0,41.6,9.9,81,27.5,115.8H-14572.2z"/>
	<g id="Group_1318" transform="translate(487.926 4049.103)">
		<rect id="Rectangle_131" x="-15393.2" y="-2657.4" class="st1" width="94.1" height="274.2"/>
		<rect id="Rectangle_132" x="-15393.2" y="-2566.3" class="st2" width="94.1" height="183"/>
	</g>
	<g id="Group_1320" transform="translate(615.543 4085.248)">
		<rect id="Rectangle_135" x="-15409.9" y="-2662.2" class="st3" width="94.1" height="242.7"/>
		<rect id="Rectangle_136" x="-15409.9" y="-2610.6" class="st4" width="94.1" height="191.2"/>
	</g>
	<g id="Group_1321" transform="translate(742.887 4199.509)">
		<rect id="Rectangle_137" x="-15426.6" y="-2677.2" class="st5" width="94.1" height="143.5"/>
		<rect id="Rectangle_138" x="-15426.6" y="-2547.6" class="st6" width="94.1" height="13.9"/>
	</g>
	<g id="Group_1319" transform="translate(360.58 4174.063)">
		<rect id="Rectangle_133" x="-15376.5" y="-2673.8" class="st7" width="94.1" height="165.6"/>
		<rect id="Rectangle_134" x="-15376.5" y="-2576.7" class="st8" width="94.1" height="68.4"/>
	</g>
	<line id="Line_214" class="st9" x1="-15081" y1="1663.7" x2="-14516.6" y2="1663.7"/>
</g>
</svg>
